<svg xmlns="http://www.w3.org/2000/svg" viewBox="0 0 94 102"><path d="M3.435 67.167l16.485.142a.95.95 0 01.945.937v2.302c9.101-.597 15.283 2.443 19.433 4.489 1.947.966 3.406 1.676 4.322 1.62h14.14c2.26.198 3.835 1.647 4.493 3.409.258.682.401 1.392.372 2.102 0 .284-.028.568-.114.853l21.666-9.234h.057c2.261-.824 4.265-.54 5.782.312.887.512 1.631 1.222 2.118 2.017.515.824.83 1.762.858 2.7.086 1.42-.458 2.84-1.688 3.92-.086.057-.143.114-.23.171-4.493 2.074-10.045 4.887-15.626 7.671-11.135 5.597-22.24 11.223-25.56 11.422h-.143c-3.892-.199-7.47-1.762-11.248-3.381-3.463-1.477-7.07-3.04-11.134-3.58h-7.498v2.529a.95.95 0 01-.945.937H.973c-.544 0-.973-.426-.973-.937l2.404-29.52a.925.925 0 011.03-.881zm57.299-50.631l4.207 9.632 10.532.994a.96.96 0 01.86 1.051 1.093 1.093 0 01-.316.625l-7.956 6.933 2.318 10.257a.947.947 0 01-.716 1.136.943.943 0 01-.686-.113l-9.13-5.342-9.102 5.342a.98.98 0 01-1.317-.341.853.853 0 01-.085-.739l2.29-10.2-7.929-6.933c-.4-.369-.458-.966-.086-1.363a.917.917 0 01.687-.313l10.476-.994 4.207-9.632c.2-.483.773-.71 1.26-.483.228.085.4.256.486.483zm2.661 10.91l-3.549-8.126-3.52 8.098a.943.943 0 01-.801.596l-8.901.824 6.697 5.882c.257.227.4.568.315.909l-1.947 8.666 7.67-4.518a.923.923 0 01.974 0l7.699 4.518-1.946-8.58c-.086-.342 0-.74.286-.995l6.697-5.882-8.872-.824a.937.937 0 01-.802-.568zm2.72-20.712c1.43.34 2.833.795 4.15 1.335a28.16 28.16 0 013.92 1.989l4.093-4.091c.401-.37 1.002-.37 1.374 0l7.499 7.444a.938.938 0 010 1.335l-4.122 4.091a29.13 29.13 0 012.004 3.864v.057a27.421 27.421 0 011.345 4.092h5.81c.544 0 .973.426.973.937v10.541c0 .512-.43.938-.973.938h-5.81a29.27 29.27 0 01-1.345 4.148 29.13 29.13 0 01-2.004 3.864l4.122 4.091a.938.938 0 010 1.336l-7.499 7.444c-.372.37-.973.37-1.374 0l-4.092-4.092a28.161 28.161 0 01-3.922 1.99c-1.316.54-2.719.994-4.15 1.335v5.767c0 .54-.429.966-.944.966H54.552a.956.956 0 01-.945-.966v-5.767a28.64 28.64 0 01-4.179-1.336c-1.345-.568-2.661-1.221-3.892-1.989l-4.121 4.092a.955.955 0 01-1.346 0l-7.498-7.444a.938.938 0 010-1.336l4.121-4.091c-.773-1.25-1.46-2.529-2.003-3.864a29.269 29.269 0 01-1.346-4.148h-5.81c-.543 0-.973-.426-.973-.938v-10.54c0-.512.43-.938.973-.938h5.81a28.134 28.134 0 011.347-4.15 24.756 24.756 0 012.003-3.864l-4.121-4.091a.938.938 0 010-1.335l7.498-7.444a.955.955 0 011.346 0l4.12 4.09a28.01 28.01 0 013.893-1.988 28.64 28.64 0 014.18-1.335V.966c0-.54.428-.966.944-.966H65.17c.515 0 .944.426.944.966v5.768zm3.434 3.097a26.888 26.888 0 00-4.522-1.393.953.953 0 01-.83-.937V1.904h-8.672V7.5a.947.947 0 01-.773.937c-1.574.313-3.12.796-4.58 1.393a25.372 25.372 0 00-4.178 2.187c-.372.285-.916.285-1.26-.085l-4.006-3.95-6.125 6.11 3.978 3.949a.94.94 0 01.115 1.193 24.63 24.63 0 00-2.233 4.205 26.16 26.16 0 00-1.402 4.46.956.956 0 01-.945.853h-5.638v8.61h5.638a.95.95 0 01.945.766 24.632 24.632 0 001.402 4.546 23.717 23.717 0 002.204 4.12.984.984 0 01-.086 1.279l-3.978 3.949 6.125 6.108 4.007-3.949a.958.958 0 011.202-.142c1.316.88 2.747 1.62 4.236 2.245 1.43.596 2.948 1.05 4.493 1.392a.954.954 0 01.859.937v5.598h8.672v-5.598c0-.454.315-.852.773-.937 1.574-.313 3.09-.796 4.579-1.392a25.372 25.372 0 004.179-2.188.966.966 0 011.259.085l3.978 3.95 6.154-6.11-4.007-3.948h.028c-.314-.313-.4-.796-.143-1.194.888-1.307 1.632-2.727 2.261-4.205a24.374 24.374 0 001.374-4.46.984.984 0 01.973-.853h5.639v-8.609h-5.639a.95.95 0 01-.944-.767c-.315-1.563-.802-3.068-1.374-4.49l-.029-.056a25.06 25.06 0 00-2.203-4.148.916.916 0 01.057-1.25l4.007-3.95-6.154-6.108-3.978 3.95c-.315.312-.83.369-1.202.141-1.317-.88-2.748-1.62-4.236-2.244zM20.865 72.48v20.655h7.756c4.293.597 8.042 2.188 11.649 3.75 3.577 1.535 6.983 3.012 10.532 3.211 2.862-.17 13.824-5.682 24.786-11.222 5.495-2.756 10.962-5.512 15.541-7.643.687-.654 1.002-1.506.945-2.33a3.666 3.666 0 00-.573-1.762 3.943 3.943 0 00-1.43-1.392c-1.06-.597-2.49-.767-4.15-.199L61.248 86.09c-.83.426-1.918.682-3.234.654H41.9l-1.631 2.5a.979.979 0 01-1.345.284.983.983 0 01-.287-1.335l1.918-2.898a.962.962 0 01.83-.455h16.657c.716.028 1.288-.057 1.775-.227l.515-.228c.487-.255.83-.625 1.059-1.022.2-.37.315-.796.315-1.25s-.057-.91-.23-1.364c-.457-1.137-1.459-2.074-2.861-2.188H44.677c-1.402.057-3.062-.739-5.209-1.818-4.007-1.96-9.931-4.887-18.603-4.262zm-1.918-3.296L4.236 69.07 2.003 96.602h16.944V69.183z" fill="#919cb4"/></svg>