<svg xmlns="http://www.w3.org/2000/svg" viewBox="0 0 95 95"><path d="M3.8 0h71.15c1.05 0 1.986.428 2.666 1.112a3.805 3.805 0 011.135 2.71v46.374a20.653 20.653 0 012.524 2.167c3.686 3.736 5.983 8.84 5.983 14.516 0 3.48-.879 6.76-2.41 9.64l8.45 8.385A5.888 5.888 0 0195 89.068a5.888 5.888 0 01-1.701 4.164l-.029.028C92.136 94.43 90.633 95 89.101 95c-1.502 0-3.005-.599-4.168-1.74l-8.423-8.328a20.018 20.018 0 01-9.641 2.453c-5.644 0-10.72-2.31-14.406-6.018a20.419 20.419 0 01-3.914-5.504H3.8c-1.05 0-1.985-.428-2.694-1.112A3.832 3.832 0 010 72.07V3.822c0-1.056.425-1.997 1.106-2.71h.028A3.738 3.738 0 013.8 0zm80.055 78.202a21.274 21.274 0 01-2.58 3.165 20.158 20.158 0 01-3.063 2.539l8.054 7.985A3.986 3.986 0 0089.1 93.09v-.028c1.05 0 2.042-.371 2.836-1.141l.029-.029a4.077 4.077 0 001.134-2.823c0-1.027-.369-2.054-1.134-2.824l-.029-.028-8.082-8.014zm-5.104-25.583v19.45a3.74 3.74 0 01-1.135 2.682 3.738 3.738 0 01-2.665 1.112H50.704a17.819 17.819 0 003.092 4.164c3.346 3.337 7.968 5.419 13.073 5.419s9.727-2.082 13.073-5.419a18.59 18.59 0 005.416-13.148 18.59 18.59 0 00-5.416-13.147l-1.191-1.113zm-11.882-6.246c3.63 0 7.032.942 9.953 2.624v-34.11H30.797v59.065h16.93a20.83 20.83 0 01-1.248-7.073c0-1.853.255-3.65.71-5.361h-.341a.959.959 0 01-.964-.97c0-.513.425-.941.964-.941h.964a19.486 19.486 0 012.41-4.563H38.596a.959.959 0 01-.965-.97c0-.514.426-.941.965-.941h13.158c.227-.257.453-.514.709-.77a20.211 20.211 0 0114.406-5.99zm9.953 4.849a18.297 18.297 0 00-9.953-2.938 18.32 18.32 0 00-12.45 4.849h5.899c.51 0 .936.427.936.94 0 .543-.426.97-.936.97h-7.714a19.512 19.512 0 00-2.75 4.564H68.57c.51 0 .936.428.936.94 0 .543-.425.97-.936.97H49.173a18.427 18.427 0 00-.794 5.362c0 2.51.51 4.906 1.39 7.073H74.95c.51 0 .992-.2 1.333-.542.34-.342.538-.827.538-1.34V51.222zM56.83 23.957c.198-.485.766-.742 1.248-.514.482.2.709.742.51 1.227l-7.203 17.454a.958.958 0 01-1.248.513.967.967 0 01-.51-1.255l7.203-17.425zm6.125 1.568a.985.985 0 010-1.369c.369-.37.964-.37 1.361 0l8.168 8.243a.95.95 0 010 1.34l-7.629 8.27c-.368.4-.964.429-1.333.058-.397-.37-.425-.97-.056-1.34l7.033-7.644-7.544-7.558zm-18.574-1.369a.938.938 0 011.332 0 .936.936 0 010 1.37L38.2 33.082l7.032 7.644c.34.37.34.97-.056 1.34-.397.37-.993.342-1.333-.057l-7.629-8.27a.903.903 0 010-1.341l8.168-8.243zm-5.785 37.362a.959.959 0 01-.965-.97c0-.513.426-.941.965-.941h1.928c.539 0 .964.428.964.94 0 .543-.425.97-.964.97h-1.928zm29.974-8.385c.51 0 .936.427.936.94 0 .543-.425.97-.936.97h-1.957a.959.959 0 01-.964-.97c0-.513.426-.94.964-.94h1.957zM14.066 68.02a.977.977 0 01-.965-.97c0-.513.454-.97.965-.97h9.556c.54 0 .965.457.965.97a.96.96 0 01-.965.97h-9.556zm-7.033 0a.959.959 0 01-.964-.97c0-.513.425-.97.964-.97H8.99c.51 0 .935.457.935.97 0 .542-.425.97-.935.97H7.033zm7.033-6.502c-.51 0-.965-.428-.965-.942 0-.541.454-.97.965-.97h9.556a.96.96 0 01.965.97.953.953 0 01-.965.942h-9.556zm-7.033 0a.953.953 0 01-.964-.942.96.96 0 01.964-.97H8.99c.51 0 .935.429.935.97a.947.947 0 01-.935.942H7.033zm7.033-6.474a.977.977 0 01-.965-.97c0-.514.454-.941.965-.941h9.556c.54 0 .965.427.965.94a.96.96 0 01-.965.97h-9.556zm-7.033 0a.959.959 0 01-.964-.97c0-.514.425-.941.964-.941H8.99c.51 0 .935.427.935.94 0 .543-.425.97-.935.97H7.033zm7.033-6.475a.977.977 0 01-.965-.97c0-.513.454-.94.965-.94h9.556c.54 0 .965.427.965.94a.96.96 0 01-.965.97h-9.556zm-7.033 0a.959.959 0 01-.964-.97c0-.513.425-.94.964-.94H8.99c.51 0 .935.427.935.94 0 .543-.425.97-.935.97H7.033zm7.033-6.502c-.51 0-.965-.428-.965-.941 0-.542.454-.97.965-.97h9.556a.96.96 0 01.965.97.953.953 0 01-.965.94h-9.556zm-7.033 0a.953.953 0 01-.964-.941c0-.542.425-.97.964-.97H8.99c.51 0 .935.428.935.97a.947.947 0 01-.935.94H7.033zm7.033-6.474c-.51 0-.965-.428-.965-.941 0-.542.454-.97.965-.97h9.556a.96.96 0 01.965.97.953.953 0 01-.965.94h-9.556zm-7.033 0a.953.953 0 01-.964-.941c0-.542.425-.97.964-.97H8.99c.51 0 .935.428.935.97a.947.947 0 01-.935.94H7.033zm7.033-6.474a.977.977 0 01-.965-.97c0-.513.454-.941.965-.941h9.556c.54 0 .965.428.965.941a.96.96 0 01-.965.97h-9.556zm-7.033 0a.959.959 0 01-.964-.97c0-.513.425-.941.964-.941H8.99c.51 0 .935.428.935.941 0 .542-.425.97-.935.97H7.033zm7.033-6.474a.977.977 0 01-.965-.97c0-.542.454-.97.965-.97h9.556c.54 0 .965.428.965.97s-.426.97-.965.97h-9.556zm-7.033 0a.959.959 0 01-.964-.97c0-.542.425-.97.964-.97H8.99c.51 0 .935.428.935.97s-.425.97-.935.97H7.033zm21.864 51.307V14.887H1.9V72.07c0 .513.227.97.567 1.312.34.37.794.57 1.333.57h25.097zM23.764 8.47a.953.953 0 01-.964-.94c0-.543.425-.97.964-.97h2.921c.539 0 .964.427.964.97a.953.953 0 01-.964.94h-2.92zm-8.365 0a.953.953 0 01-.965-.94.96.96 0 01.965-.97h2.92c.54 0 .965.427.965.97a.953.953 0 01-.965.94H15.4zm-8.366 0a.953.953 0 01-.964-.94c0-.543.425-.97.964-.97h2.92c.54 0 .965.427.965.97a.953.953 0 01-.964.94H7.033zM1.9 12.977h74.923V3.822c0-.542-.2-.999-.54-1.34a1.907 1.907 0 00-1.332-.571H3.8c-.539 0-.993.228-1.333.57-.34.342-.567.799-.567 1.34v9.156z" fill="#919cb4"/></svg>