<svg xmlns="http://www.w3.org/2000/svg" viewBox="0 0 80 80"><path d="M51.427 1.65C48.95.94 46.417.428 43.857.2c-.513-.058-.997.34-1.054.853a.989.989 0 00.883 1.081c2.419.228 4.838.712 7.171 1.395.086.028.2.028.285.028.427 0 .797-.284.94-.683a1.008 1.008 0 00-.655-1.223zm4.895 72.743c-.94.427-1.879.854-2.846 1.224a.947.947 0 00-.57 1.252.96.96 0 00.911.627c.114 0 .228-.029.342-.057.626-.257 1.223-.513 1.85-.769l.512-.227v2.59c0 .54.455.967.967.967h21.544a.96.96 0 00.968-.968v-5.379a6.34 6.34 0 00-4.354-6.033l-.37-.142.142-.37c.37-.91.57-1.879.57-2.875 0-1.451-.428-2.846-1.196-4.098l-.114-.17.114-.2a39.827 39.827 0 001.48-2.874.956.956 0 00-.456-1.28c-.512-.229-1.081-.03-1.309.454-.313.655-.626 1.31-.967 1.964l-.228.37-.342-.256a7.58 7.58 0 00-4.695-1.622c-4.24 0-7.713 3.472-7.713 7.712 0 .996.2 1.964.57 2.875l.142.37-.37.142a6.33 6.33 0 00-4.383 6.033v.627l-.2.113zm16.307-13.888c.057.114.142.2.228.285l.028.028.029.029c.711.996 1.11 2.163 1.11 3.386 0 1.167-.37 2.306-1.025 3.273l-.029.029-.028.028c-.028.029-.057.086-.085.114-.968 1.252-2.334 2.078-3.9 2.277h-.227l-.028.028h-.883v-.028h-.227a5.777 5.777 0 01-3.9-2.277c-.028-.028-.056-.085-.085-.114l-.028-.028-.029-.029a5.645 5.645 0 01-1.024-3.273 5.733 5.733 0 015.749-5.748c1.65 0 3.216.711 4.326 1.963l.028.029v.028zm-10.046 8.908a7.678 7.678 0 004.098 2.362h.085c.029.029.057.029.114.029 0 0 .029.028.057.028h.142c0 .029.029.029.057.029h.143l.028.028h.2c.056.028.113.028.17.028h.199c.057 0 .143.029.2.029h.398c.057 0 .114-.029.17-.029h.228c.057 0 .114 0 .171-.028h.171l.057-.028h.142c.028 0 .028-.029.057-.029h.114c.028 0 .057-.028.085-.028.029 0 .086 0 .114-.029h.085a7.678 7.678 0 004.099-2.362l.142-.142.2.028a4.41 4.41 0 013.756 4.354v4.412h-19.58v-4.412A4.385 4.385 0 0162.24 69.3l.2-.028.142.142zm-16.934 9.22c-.057-.54-.54-.91-1.081-.853-3.017.37-6.119.37-9.136 0a.967.967 0 00-1.081.854c-.086.54.313 1.024.854 1.081 1.593.2 3.187.285 4.81.285 1.593 0 3.187-.085 4.78-.285.541-.057.911-.54.854-1.081zM6.49 58.03a61.427 61.427 0 01-.996-1.964.956.956 0 00-1.281-.455c-.484.228-.711.797-.484 1.28.456.997.968 1.936 1.509 2.875l.085.2-.114.17a7.775 7.775 0 00-1.167 4.098c0 .996.2 1.964.57 2.875l.142.37-.37.142A6.33 6.33 0 000 73.653v5.38c0 .54.427.967.968.967h21.544a.96.96 0 00.967-.968v-2.59l.54.228c.599.256 1.225.512 1.85.769.115.028.228.057.342.057a.99.99 0 00.911-.627.947.947 0 00-.57-1.252c-.967-.37-1.906-.797-2.845-1.224l-.228-.113v-.627a6.34 6.34 0 00-4.354-6.033l-.399-.142.171-.37c.37-.91.54-1.879.54-2.875 0-4.24-3.443-7.712-7.683-7.712a7.72 7.72 0 00-4.724 1.622l-.342.256-.2-.37zm-.456 11.384a7.481 7.481 0 004.07 2.334c.029.028.029.028.057.028h.085c.029.029.057.029.114.029 0 0 .029.028.057.028h.143l.056.029h.143l.028.028h.199a.361.361 0 00.171.028h.2c.056 0 .142.029.199.029h.398c.057 0 .114-.029.17-.029h.228c.057 0 .114 0 .171-.028h.17l.057-.028h.142l.057-.029h.114c.028 0 .057-.028.085-.028s.057 0 .114-.029h.114a7.705 7.705 0 004.07-2.362l.142-.142.2.028a4.41 4.41 0 013.756 4.354v4.411H1.964v-4.41A4.385 4.385 0 015.72 69.3l.2-.028.113.142zm1.11-8.623c.086-.086.171-.171.228-.285l.029-.028.028-.029a5.683 5.683 0 014.326-1.963 5.751 5.751 0 015.749 5.748c0 1.167-.37 2.306-1.025 3.273l-.028.029-.029.028c-.028.029-.057.086-.114.114-.939 1.252-2.305 2.078-3.87 2.277h-.228l-.028.028h-.883v-.028h-.227a5.777 5.777 0 01-3.9-2.277c-.028-.028-.056-.085-.085-.114l-.028-.028-.028-.029a5.645 5.645 0 01-1.025-3.273c0-1.223.37-2.419 1.11-3.386v-.029l.028-.028zm36.884-33.867h-24.19a2.344 2.344 0 00-2.334 2.333v16.137c0 1.28 1.024 2.305 2.333 2.305h1.708v7.115c0 .399.228.74.598.91.113.03.256.058.37.058.256 0 .512-.086.683-.285l7.798-7.798h1.309v5.778c0 1.28 1.053 2.305 2.333 2.305H47.67l7.798 7.798c.17.17.427.284.683.284a.788.788 0 00.37-.085.951.951 0 00.626-.882V55.78h1.708c1.28 0 2.305-1.025 2.305-2.334V37.311a2.296 2.296 0 00-2.305-2.306H46.36v-5.749a2.308 2.308 0 00-2.334-2.333zM34.265 36.94h24.959v16.905h-3.073a.96.96 0 00-.968.967v5.72L48.78 54.13a.944.944 0 00-.712-.284l-13.803-.029V36.941zm-1.963 8.822h-1.708a.994.994 0 00-.683.285L23.48 52.45v-5.72a.96.96 0 00-.967-.968h-3.074l.028-16.905 24.96.029v6.118h-9.79c-1.281 0-2.334 1.025-2.334 2.306v8.452zm9.05 1.338h-2.704a.997.997 0 00-.967.967c0 .541.455.996.967.996h2.704c.54 0 .967-.455.967-.996a.978.978 0 00-.967-.967zm13.461 0h-8.082a.978.978 0 00-.968.967c0 .541.427.996.968.996h8.082c.541 0 .968-.455.968-.996a.978.978 0 00-.968-.967zm0-5.38H52.11a.96.96 0 00-.968.968c0 .541.427.997.968.997h2.703c.541 0 .968-.456.968-.997a.96.96 0 00-.968-.967zm-8.082 0h-8.083a.978.978 0 00-.967.968c0 .541.455.997.967.997h8.083c.54 0 .967-.456.967-.997a.96.96 0 00-.967-.967zM2.504 46.447a37.736 37.736 0 01-.54-6.432c0-1.224.057-2.447.17-3.643.029-.54-.341-1.024-.882-1.053a.988.988 0 00-1.081.854A41.23 41.23 0 00.569 46.76a.978.978 0 00.968.825c.057 0 .114 0 .17-.028a.985.985 0 00.797-1.11zM3.33 24.02a35.775 35.775 0 00-.74 1.85c-.2.484.057 1.053.569 1.252.114.028.228.057.342.057a.99.99 0 00.91-.626c.37-.968.769-1.907 1.224-2.846l.085-.228h16.792a.96.96 0 00.967-.967v-5.38a6.341 6.341 0 00-4.354-6.033l-.399-.142.171-.37a7.675 7.675 0 00.54-2.42v-.17l.172-.114c.91-.569 1.821-1.11 2.76-1.593.484-.257.655-.854.427-1.338a1.01 1.01 0 00-1.337-.398c-.598.341-1.224.683-1.822 1.024l-.398.228-.143-.427C18.072 2.19 15.112 0 11.754 0 7.484 0 4.04 3.472 4.04 7.713c0 .996.2 1.963.57 2.874l.142.37-.37.142A6.33 6.33 0 000 17.133v5.379c0 .54.427.967.968.967h2.59l-.228.54zm2.703-11.128a7.848 7.848 0 004.07 2.334c.029 0 .029.028.057.028h.085c.029.029.057.029.114.029 0 0 .029 0 .057.028h.143l.028.029h.2c.056.028.113.028.17.028h.028c.057 0 .114.029.171.029h.399a.426.426 0 00.199.028c.057 0 .114 0 .199-.028h.398c.057 0 .114-.029.171-.029h.029c.057 0 .085 0 .142-.028h.199l.057-.029h.114c.028-.028.057-.028.085-.028s.057 0 .114-.029h.114a7.706 7.706 0 004.07-2.362l.142-.142.2.028a4.41 4.41 0 013.756 4.355v4.41H1.964v-4.41a4.385 4.385 0 013.756-4.355l.2-.028.113.142zm10.388-1.85c-.028.029-.057.086-.114.114a5.611 5.611 0 01-4.04 2.277h-.086c-.057.028-.086.028-.114.028h-.626c-.057 0-.086 0-.114-.028h-.114a5.611 5.611 0 01-4.041-2.277c-.029-.028-.057-.085-.114-.114l-.028-.028v-.029a5.645 5.645 0 01-1.025-3.272 5.733 5.733 0 015.749-5.75c2.988 0 5.521 2.334 5.72 5.323v.085c0 .085 0 .2.029.285v.085c0 1.167-.37 2.277-1.025 3.244l-.028.029-.029.028zm44.483.057a6.33 6.33 0 00-4.383 6.034v5.379c0 .54.455.967.967.967H74.28l.113.228c.427.939.854 1.878 1.224 2.846a.96.96 0 00.91.626c.115 0 .229-.029.342-.057.484-.2.74-.768.57-1.252-.256-.626-.484-1.252-.769-1.85l-.227-.54h2.59a.96.96 0 00.967-.968v-5.38a6.341 6.341 0 00-4.354-6.033l-.37-.142.142-.37c.37-.91.57-1.878.57-2.874 0-4.24-3.473-7.713-7.713-7.713-3.359 0-6.347 2.191-7.343 5.379l-.142.427-.399-.228c-.597-.341-1.223-.683-1.85-1.024a.976.976 0 00-1.309.398 1.01 1.01 0 00.399 1.338 38.99 38.99 0 012.789 1.593l.142.114.029.17c.028.855.227 1.652.54 2.42l.143.37-.37.142zm1.679 1.793a7.678 7.678 0 004.098 2.362h.085c.029.029.057.029.114.029 0 0 .029 0 .057.028h.142s.029 0 .057.029h.143s.028 0 .028.028h.2c.056 0 .113.029.17.029h.399c.056.028.113.028.199.028.057 0 .113 0 .17-.028h.427c.057 0 .114-.029.171-.029h.171l.057-.028h.142c.028 0 .028-.029.057-.029h.114c.028-.028.057-.028.085-.028.029 0 .086 0 .114-.029h.085a7.678 7.678 0 004.099-2.362l.142-.142.2.028a4.41 4.41 0 013.756 4.355v4.41h-19.58v-4.41a4.385 4.385 0 013.756-4.355l.2-.028.142.142zm-.057-5.236a.485.485 0 000-.285v-.085a5.771 5.771 0 015.749-5.322 5.751 5.751 0 015.748 5.749 5.86 5.86 0 01-1.024 3.272l-.029.029-.028.028c-.028.029-.057.086-.085.114-.968 1.252-2.334 2.078-3.9 2.277h-.255c-.029.028-.086.028-.143.028h-.597c-.029 0-.086 0-.143-.028h-.227a5.777 5.777 0 01-3.9-2.277c-.028-.028-.056-.085-.085-.114l-.028-.028-.029-.029a5.558 5.558 0 01-1.024-3.244v-.085zM79.829 36.2c-.057-.541-.54-.94-1.053-.883a.947.947 0 00-.882 1.053c.114 1.224.17 2.42.17 3.643 0 2.163-.198 4.298-.54 6.432-.085.54.256 1.053.797 1.138h.17c.456 0 .883-.341.94-.796.398-2.249.569-4.525.569-6.774 0-1.28-.057-2.561-.17-3.813zM36.172.199a38.244 38.244 0 00-7.57 1.452c-.512.142-.797.711-.655 1.223.143.399.513.683.94.683.085 0 .199 0 .284-.028a36.316 36.316 0 017.172-1.395c.54-.056.94-.54.882-1.081a.96.96 0 00-1.053-.854z" fill-rule="evenodd" clip-rule="evenodd" fill="#f03f2c"/></svg>