<svg xmlns="http://www.w3.org/2000/svg" viewBox="0 0 86 86"><path d="M62.664 43.17a19.618 19.618 0 01-5.728 12.998c-3.572 3.524-8.45 5.696-13.865 5.696a19.708 19.708 0 01-10.69-3.13.95.95 0 01-.51-.846c0-.536.425-.959.964-.959a.94.94 0 01.539.17c2.778 1.832 6.096 2.875 9.697 2.875 4.877 0 9.3-1.973 12.504-5.16a18.433 18.433 0 001.928-2.255L46.7 45.087a.763.763 0 01-.227-.198 6.732 6.732 0 01-2.722.592h-1.134c-.85 0-1.701-.169-2.467-.479a.763.763 0 01-.226.197l-12.448 7.416a.956.956 0 01-1.305-.31c-.028-.056-.056-.085-.056-.113-.114-.14 0 .028 0 0l-.029-.028c0-.028-.028-.085-.085-.17a18.906 18.906 0 01-2.523-8.797v-.112a.94.94 0 01.935-.93c.54 0 .965.422.965.93.113 2.678.793 5.188 1.956 7.415l11.03-6.57a5.428 5.428 0 01-.425-.394 6.52 6.52 0 01-1.928-4.653V33.3c0-1.804.737-3.44 1.928-4.652a6.694 6.694 0 014.678-1.918h1.134c1.815 0 3.46.734 4.679 1.918 1.19 1.212 1.928 2.848 1.928 4.652v5.583a6.52 6.52 0 01-1.928 4.653c-.085.084-.17.169-.284.254l10.378 7.161a17.459 17.459 0 002.212-7.838v-.028c0-.508.425-.93.964-.93.539 0 .964.422.964.93v.084zm14.404 18.327c-.794-.79-1.9-1.269-3.147-1.269-1.22 0-2.354.48-3.148 1.269v.028a4.396 4.396 0 00-1.304 3.13 4.38 4.38 0 001.304 3.102v.028c.794.79 1.929 1.269 3.148 1.269 1.247 0 2.353-.48 3.147-1.27v-.027a4.38 4.38 0 001.305-3.102c0-1.24-.51-2.34-1.305-3.13v-.028zM63.742 84.111a.97.97 0 01-.936.761.948.948 0 01-.936-.959v-.169a9.523 9.523 0 012.637-4.99 9.472 9.472 0 016.578-2.764h5.7a9.472 9.472 0 016.578 2.763A9.618 9.618 0 0186 83.744v.169a.948.948 0 01-.936.96.97.97 0 01-.935-.762v-.057c-.284-1.522-1.05-2.876-2.099-3.947a1.784 1.784 0 00-.255-.226l-.17-.169v.028c-1.304-1.128-3.006-1.832-4.849-1.832h-5.642c-1.843 0-3.545.704-4.849 1.832v-.028l-.17.17c-.085.056-.17.14-.255.225-1.078 1.071-1.843 2.453-2.098 4.004zm10.179-25.8c1.758 0 3.346.733 4.48 1.86h.028a6.384 6.384 0 011.843 4.484c0 1.72-.709 3.3-1.843 4.455h-.028a6.245 6.245 0 01-4.48 1.861 6.245 6.245 0 01-4.48-1.86 6.274 6.274 0 01-1.872-4.456 6.29 6.29 0 011.872-4.483 6.245 6.245 0 014.48-1.861zm-58.723 3.186a4.404 4.404 0 00-3.119-1.269c-1.247 0-2.353.48-3.147 1.269l-.029.028c-.794.79-1.276 1.89-1.276 3.13 0 1.213.482 2.312 1.276 3.102l.029.028c.794.79 1.9 1.269 3.147 1.269 1.22 0 2.325-.48 3.12-1.27l.028-.027a4.355 4.355 0 001.275-3.102c0-1.24-.482-2.34-1.275-3.13l-.029-.028zM1.871 84.111a.939.939 0 01-.907.761.953.953 0 01-.964-.959c0-.028 0-.084.028-.14v-.029c.34-1.917 1.276-3.637 2.609-4.99 1.701-1.664 4.026-2.736 6.578-2.764h5.728c2.552.028 4.877 1.1 6.578 2.763a9.378 9.378 0 012.609 4.991v.028a.31.31 0 01.028.141.953.953 0 01-.964.96.939.939 0 01-.907-.762l-.029-.057a7.47 7.47 0 00-2.098-3.947c-.056-.085-.142-.17-.227-.226s-.141-.112-.198-.169v.028c-1.304-1.128-3.006-1.832-4.82-1.832H9.244c-1.843 0-3.516.704-4.82 1.832v-.028a1.221 1.221 0 01-.2.17.86.86 0 00-.226.225 7.572 7.572 0 00-2.127 4.004zm10.208-25.8c1.73 0 3.318.733 4.48 1.86a6.29 6.29 0 011.872 4.484c0 1.72-.71 3.3-1.872 4.455a6.36 6.36 0 01-8.988 0 6.274 6.274 0 01-1.872-4.455c0-1.748.738-3.327 1.872-4.483a6.36 6.36 0 014.508-1.861zm60.452-28.225h-.028a.917.917 0 00-.907.93c0 .508.397.93.907.96h12.278a.953.953 0 00.964-.96v-3.919c0-2.594-1.078-4.934-2.779-6.654-1.73-1.692-4.083-2.764-6.692-2.764h-5.5a9.406 9.406 0 00-6.267 2.397.982.982 0 00-.283.677c0 .507.425.93.935.93.284 0 .539-.113.71-.282 1.332-1.128 3.033-1.832 4.904-1.832h5.501c2.07 0 3.97.845 5.331 2.227a7.393 7.393 0 012.24 5.301v2.96l-11.285.029h-.029zM73.524 0c-1.73 0-3.318.705-4.48 1.861a6.274 6.274 0 00-1.872 4.455 6.29 6.29 0 001.872 4.483 6.44 6.44 0 004.48 1.833 6.457 6.457 0 004.508-1.833v-.028a6.267 6.267 0 001.843-4.455 6.267 6.267 0 00-1.843-4.455A6.36 6.36 0 0073.524 0zm-3.147 3.186c.822-.79 1.928-1.297 3.147-1.297 1.248 0 2.353.508 3.147 1.297a4.378 4.378 0 011.305 3.13c0 1.24-.482 2.34-1.305 3.13-.794.818-1.9 1.297-3.147 1.297-1.22 0-2.325-.48-3.147-1.297a4.396 4.396 0 01-1.305-3.13c0-1.212.51-2.312 1.305-3.13zm-56.738 26.9c.51 0 .935.423.935.93 0 .508-.397.93-.935.96H1.389a.953.953 0 01-.964-.96v-3.919a9.329 9.329 0 012.78-6.654 9.502 9.502 0 016.69-2.764h5.473c2.41 0 4.622.903 6.295 2.397.17.17.284.423.284.677 0 .507-.426.93-.964.93a.993.993 0 01-.681-.282c-1.333-1.128-3.062-1.832-4.934-1.832H9.896c-2.098 0-3.97.845-5.36 2.227a7.484 7.484 0 00-2.21 5.301v2.96l11.284.029h.029zM12.618 0a6.36 6.36 0 014.508 1.861 6.368 6.368 0 011.843 4.455 6.384 6.384 0 01-1.843 4.483 6.457 6.457 0 01-4.508 1.833 6.44 6.44 0 01-4.48-1.833v-.028a6.176 6.176 0 01-1.872-4.455 6.18 6.18 0 011.872-4.455A6.344 6.344 0 0112.618 0zm3.147 3.186a4.445 4.445 0 00-3.147-1.297c-1.22 0-2.325.508-3.148 1.297-.793.818-1.304 1.918-1.304 3.13 0 1.24.51 2.34 1.304 3.13a4.427 4.427 0 003.148 1.297c1.247 0 2.353-.48 3.147-1.297.823-.79 1.305-1.89 1.305-3.13a4.378 4.378 0 00-1.305-3.13zm18.828 7.67a.953.953 0 01-.964-.959c0-.507.425-.93.964-.93h1.843c.51 0 .936.423.936.93a.948.948 0 01-.936.959h-1.843zm15.085 0a.948.948 0 01-.936-.959c0-.507.425-.93.936-.93h1.843c.538 0 .964.423.964.93a.953.953 0 01-.964.959h-1.843zm-7.543 0a.948.948 0 01-.936-.959c0-.507.426-.93.936-.93h1.843c.539 0 .964.423.964.93a.953.953 0 01-.964.959h-1.843zm.936 5.047a26.56 26.56 0 0118.8 7.754c4.82 4.793 7.797 11.42 7.797 18.723S66.69 56.309 61.87 61.074a26.83 26.83 0 01-8.336 5.64v9.079a.948.948 0 01-.936.958h-4.792v8.29a.953.953 0 01-.964.959.948.948 0 01-.936-.959v-8.29h-5.67v8.29a.953.953 0 01-.965.959.953.953 0 01-.964-.959v-8.29h-4.763a.953.953 0 01-.964-.958v-9.08a26.83 26.83 0 01-8.337-5.639c-4.82-4.765-7.797-11.391-7.797-18.694s2.977-13.93 7.797-18.723a26.628 26.628 0 0118.828-7.754zm8.563 51.515c-2.212.762-4.537 1.213-6.975 1.382h-.482l-.085.028h-2.07l-.085-.028h-.482c-.17-.028-.369-.028-.54-.056h-.084c-2.212-.198-4.338-.62-6.352-1.326v7.416h17.155v-7.416zm8.903-42.408c-4.48-4.455-10.661-7.218-17.466-7.218a24.618 24.618 0 00-17.467 7.218 24.345 24.345 0 00-7.258 17.37c0 6.767 2.778 12.914 7.258 17.369a24.632 24.632 0 008.252 5.414v.028h.056a24.464 24.464 0 007.883 1.72h.312l.283.028h1.333l.284-.028h.311a24.671 24.671 0 0016.22-7.162c4.451-4.455 7.23-10.602 7.23-17.37 0-6.795-2.779-12.942-7.23-17.369zm-16.786 3.61h-1.134A4.735 4.735 0 0039.3 30a4.682 4.682 0 00-1.39 3.3v5.582a4.735 4.735 0 004.707 4.709h1.134a4.735 4.735 0 004.707-4.709V33.3a4.682 4.682 0 00-1.39-3.299 4.735 4.735 0 00-3.317-1.381z" fill="#ea463c"/></svg>