<svg xmlns="http://www.w3.org/2000/svg" viewBox="0 0 106 106"><path d="M53 50.718c3.26 0 6.239 1.36 8.374 3.515a11.94 11.94 0 013.457 8.448 12.04 12.04 0 01-3.457 8.449 11.656 11.656 0 01-3.653 2.494 15.942 15.942 0 016.295 3.884c2.81 2.864 4.58 6.804 4.58 11.114v16.442c0 .51-.421.936-.955.936H38.359a.946.946 0 01-.956-.936V88.622c0-4.31 1.77-8.25 4.581-11.114a15.85 15.85 0 016.323-3.884 11.78 11.78 0 01-3.681-2.494 12.04 12.04 0 01-3.457-8.449c0-3.316 1.32-6.293 3.457-8.448S49.74 50.718 53 50.718zM53 0c-1.152 0-1.32 1.786-.056 1.9.646.028 1.236.028 1.855.084a.96.96 0 00.562-.113c.786-.482.533-1.7-.394-1.786A22.345 22.345 0 0053 0zm-4.918 2.495c.984-.227.956-1.758-.168-1.871-.113 0-.197 0-.281.028-.647.17-1.265.34-1.883.567-.956.312-.843 1.73.225 1.843.14 0 .252 0 .365-.057.59-.198 1.152-.368 1.742-.51zm-6.576 2.948c.703-.482.478-1.56-.337-1.73a.893.893 0 00-.702.143c-.562.368-1.096.765-1.602 1.19-.9.737.084 2.183 1.124 1.531.506-.397.983-.794 1.517-1.134zm-5.17 5.018a1.04 1.04 0 00.084-.992c-.337-.624-1.208-.709-1.63-.114-.365.54-.73 1.078-1.068 1.645-.59.992.759 1.984 1.518 1.105a.393.393 0 01.084-.113c.31-.539.646-1.049 1.012-1.53zm-3.148 6.52c.281-1.077-1.208-1.729-1.77-.68-.028.057-.056.085-.056.142-.169.652-.338 1.304-.45 1.956-.112.51.225.992.73 1.106a.982.982 0 001.125-.766c.112-.595.253-1.19.421-1.757zm-.759 7.201c-.112-1.219-1.882-1.134-1.882.085.028.68.112 1.361.224 2.042.141.992 1.658 1.105 1.855 0a.587.587 0 000-.312 37.07 37.07 0 01-.197-1.815zm1.743 7.031a.925.925 0 00-1.04-.538c-.59.113-.927.765-.674 1.332.252.595.562 1.219.899 1.786.112.198.309.34.534.425.815.255 1.517-.623 1.096-1.389a21.569 21.569 0 01-.815-1.616zm-1.714.794l.899 1.786 1.63-.964-2.53-.822zm5.76 5.216c-.815-.822-2.107.227-1.433 1.22.422.51 1.04 1.048 1.518 1.474.899.737 2.08-.454 1.349-1.361-.028-.029-.085-.057-.113-.085-.45-.397-.899-.822-1.32-1.248zm5.846 4.224c-1.096-.482-1.911 1.021-.928 1.673.028.028.056.028.113.057.59.283 1.18.538 1.798.765.871.369 1.743-.737.984-1.559-.113-.113-.197-.17-.31-.198a22.519 22.519 0 01-1.657-.738zm6.913 1.957a.998.998 0 00-.9.425c-.365.624.029 1.417.703 1.474.674.057 1.32.113 1.995.113 1.18 0 1.293-1.786.056-1.899a38.344 38.344 0 01-1.854-.113zm7.166-.54c-.956.228-.956 1.702.112 1.872.14 0 .225 0 .365-.028.619-.17 1.265-.369 1.883-.596.984-.34.759-1.9-.393-1.842-.085.028-.169.028-.253.056a19.8 19.8 0 01-1.714.539zm6.52-3.004c-.816.567-.282 1.956.814 1.7.113-.028.169-.084.281-.14a20.89 20.89 0 001.574-1.192c.815-.68.056-2.04-1.012-1.616-.084.057-.14.086-.196.142-.478.397-.956.766-1.462 1.106zm1.095 1.56l1.574-1.192-1.208-1.474-.366 2.665zm4.047-6.663c-.618.879.506 2.013 1.377 1.304.056-.057.112-.113.168-.198.366-.54.731-1.106 1.068-1.673.562-.964-.758-1.985-1.545-1.077-.028.028-.056.085-.085.141-.309.51-.646 1.02-.983 1.503zm3.091-6.52c-.084.255-.028.51.112.737.45.708 1.462.538 1.715-.256a21.3 21.3 0 00.421-1.927c.197-1.05-1.264-1.616-1.77-.596-.056.114-.056.17-.085.255a39.068 39.068 0 01-.393 1.786zm.646-7.23c.113 1.05 1.546 1.19 1.855.199.028-.142.056-.227.028-.369-.028-.652-.14-1.332-.225-1.956-.224-1.162-1.882-1.02-1.882.17v.142c.112.595.196 1.219.224 1.814zm-1.826-7.002c.421.935 1.91.595 1.798-.539 0-.113-.028-.17-.084-.283-.281-.596-.562-1.191-.9-1.758-.14-.284-.449-.454-.758-.482a.949.949 0 00-.871 1.418c.309.538.562 1.077.815 1.644zM67.613 8.05c.702.71 1.91-.028 1.546-1.049a1.91 1.91 0 00-.197-.311A32.697 32.697 0 0067.5 5.358c-.787-.68-1.94.255-1.434 1.19.085.114.14.17.225.256.45.397.9.794 1.32 1.247zM61.74 3.856c.45.198.955.056 1.208-.369a.977.977 0 00-.393-1.36c-.59-.256-1.209-.54-1.827-.766-1.124-.369-1.799 1.219-.73 1.757.59.256 1.152.454 1.742.738zm3.625 16.726l-5.48 4.11 2.248 6.805c.197.595.14 1.19-.112 1.7-.253.51-.703.936-1.293 1.135a2.171 2.171 0 01-1.04.085 2.078 2.078 0 01-.955-.426l-5.677-4.195-5.48 4.11c-.477.369-1.068.482-1.63.397a2.167 2.167 0 01-1.46-.879c-.226-.283-.338-.623-.394-.963a2.169 2.169 0 01.084-1.05l2.108-6.633-5.761-4.253a2.305 2.305 0 01-.871-1.474 2.189 2.189 0 01.421-1.644 1.92 1.92 0 01.759-.68c.309-.17.674-.227 1.012-.227l7.081-.029 1.967-6.152c.197-.567.59-1.02 1.096-1.275a2.05 2.05 0 011.686-.142c.338.085.647.283.872.51.253.255.45.567.562.907l2.051 6.152h6.997c.619 0 1.153.255 1.574.652.394.426.646.964.646 1.588 0 .397-.112.765-.28 1.077-.17.34-.422.596-.731.794zm-7.166 3.005l6.126-4.593a.22.22 0 00.112-.113c.029-.057.057-.085.057-.17s-.057-.17-.113-.227c-.056-.057-.14-.113-.225-.113h-7.671c-.394 0-.787-.227-.9-.624l-2.276-6.832a.156.156 0 00-.084-.142c-.028-.028-.084-.057-.113-.085a.373.373 0 00-.253.028c-.084.029-.14.114-.168.199l-2.192 6.804a.903.903 0 01-.871.652h-7.784a.214.214 0 00-.14.056.398.398 0 00-.113.085c-.057.085-.085.17-.057.256 0 .085.057.17.113.226l6.295 4.65c.309.255.477.652.337 1.077l-2.333 7.258c0 .056-.028.113 0 .17 0 .056.029.113.057.141.056.085.14.114.224.142.085 0 .17 0 .225-.057l6.014-4.479a.885.885 0 011.152-.028l6.21 4.593a.567.567 0 01.141.085c.056 0 .113 0 .169-.029.084-.028.14-.085.197-.17a.397.397 0 000-.255l-2.445-7.428a.945.945 0 01.309-1.077zm41.253 10.206l-2.894 2.155 1.208 3.6c.14.454.084.907-.084 1.304a1.69 1.69 0 01-.984.822c-.253.114-.534.114-.787.085-.028 0-.084-.028-.112-.028a1.748 1.748 0 01-.618-.284l-2.979-2.21-2.894 2.154a1.642 1.642 0 01-1.237.312 1.594 1.594 0 01-1.096-.68 1.34 1.34 0 01-.309-.738 1.407 1.407 0 01.056-.765l1.124-3.516-3.063-2.268a1.679 1.679 0 01-.646-1.105 1.564 1.564 0 01.309-1.248c.14-.227.365-.397.59-.51a1.66 1.66 0 01.759-.17h3.737l1.04-3.232c.14-.454.45-.794.815-.992a1.697 1.697 0 011.293-.114c.253.085.477.227.646.426.197.17.337.396.422.652l1.067 3.26h3.71c.478 0 .9.17 1.18.482.31.312.506.737.506 1.19 0 .312-.084.567-.225.823a1.546 1.546 0 01-.534.595zM94.9 34.842l2.979-2.24H94.14a.963.963 0 01-.9-.652l-1.067-3.288-1.068 3.288a.912.912 0 01-.871.652H86.44l3.063 2.268c.31.227.478.652.337 1.05l-1.124 3.543 2.867-2.155c.337-.255.815-.283 1.152-.028l3.035 2.24-1.208-3.6c-.14-.37 0-.823.337-1.078zm-73.458-1.049l-2.895 2.155 1.18 3.6c.141.454.113.907-.084 1.304-.197.369-.534.68-.955.822-.281.114-.534.114-.787.085-.056 0-.084-.028-.14-.028a1.433 1.433 0 01-.59-.284l-3.008-2.21-2.894 2.154a1.642 1.642 0 01-1.237.312 1.594 1.594 0 01-1.096-.68c-.168-.2-.253-.454-.309-.738-.028-.255 0-.539.056-.765l1.125-3.516-3.035-2.268c-.366-.283-.619-.68-.675-1.105a1.678 1.678 0 01.31-1.248c.168-.227.365-.397.59-.51.224-.113.505-.17.758-.17h3.766l1.011-3.232c.14-.454.45-.794.843-.992a1.615 1.615 0 011.265-.114c.253.085.478.227.646.426h.028c.17.17.31.396.394.652l1.096 3.26h3.71c.449 0 .87.17 1.18.482.309.312.477.737.477 1.19 0 .312-.056.567-.196.823-.14.226-.31.453-.534.595zm-4.58 1.049l3.006-2.24h-3.766a.903.903 0 01-.87-.652l-1.097-3.288-1.04 3.288a.947.947 0 01-.899.652H8.402l3.064 2.268a.893.893 0 01.337 1.05l-1.124 3.543 2.894-2.155a.961.961 0 011.152-.028l3.007 2.24-1.18-3.6a.945.945 0 01.31-1.078zm1.264 45.02l-4.244-7.031-3.934 7.087 4.187 9.299 3.99-9.356zm-2.53-7.825l4.412 7.257c.141.256.17.567.057.88l-5.03 11.68a.915.915 0 01-.506.566.913.913 0 01-1.237-.482l-5.255-11.68c-.112-.283-.112-.595.028-.85l4.103-7.4a12.072 12.072 0 00-6.772 3.43 12.105 12.105 0 00-3.513 8.506v13.523h23.914V83.944c0-3.289-1.348-6.322-3.512-8.505a11.975 11.975 0 00-6.689-3.402zm2.698-1.304a14.084 14.084 0 015.34 3.373 13.95 13.95 0 014.046 9.838V98.43a.94.94 0 01-.927.935H.955A.946.946 0 010 98.431V83.944c0-3.827 1.574-7.314 4.075-9.838a13.979 13.979 0 015.311-3.373 10.14 10.14 0 01-2.979-2.098 10.673 10.673 0 01-3.091-7.541c0-2.92 1.18-5.585 3.091-7.513a10.464 10.464 0 017.447-3.09 10.56 10.56 0 017.447 3.09 10.656 10.656 0 013.091 7.513c0 2.948-1.18 5.613-3.09 7.54-.872.851-1.884 1.589-3.008 2.099zm-4.44-14.572c2.136 0 4.16.51 5.93 1.39.899.481 1.77 1.048 2.5 1.7-.336-1.673-1.18-3.147-2.332-4.309-1.545-1.588-3.71-2.552-6.098-2.552s-4.552.964-6.126 2.552a8.735 8.735 0 00-2.332 4.31 13.207 13.207 0 012.529-1.702 13.159 13.159 0 015.93-1.389zm5.087 3.09c-1.49-.765-3.232-1.19-5.087-1.19-1.883 0-3.597.425-5.086 1.19-1.433.709-2.642 1.73-3.513 2.949v.028a8.765 8.765 0 002.473 5.046c1.433 1.418 3.316 2.353 5.452 2.523h.028l.084.029h1.096l.084-.029h.029a8.627 8.627 0 005.451-2.523 8.765 8.765 0 002.473-5.046V62.2c-.87-1.22-2.08-2.24-3.484-2.949zm77.504 20.61l-4.243-7.03-3.934 7.087 4.159 9.299 4.018-9.356zm-2.529-7.824l4.384 7.257a.886.886 0 01.056.88l-5.002 11.68a1.003 1.003 0 01-.506.566c-.477.227-1.04 0-1.264-.482l-5.227-11.68c-.113-.283-.113-.595.028-.85l4.103-7.4a12.071 12.071 0 00-6.773 3.43 12.105 12.105 0 00-3.512 8.506v13.523h23.914V83.944c0-3.289-1.349-6.322-3.513-8.505a11.975 11.975 0 00-6.688-3.402zm2.698-1.304a13.767 13.767 0 015.311 3.373A13.856 13.856 0 01106 83.944V98.43c0 .51-.422.935-.955.935h-25.77a.946.946 0 01-.955-.935V83.944a13.86 13.86 0 014.074-9.838 13.767 13.767 0 015.312-3.373c-1.124-.51-2.136-1.248-3.007-2.098a10.77 10.77 0 01-3.063-7.541c0-2.92 1.18-5.585 3.063-7.513 1.91-1.9 4.552-3.09 7.447-3.09a10.58 10.58 0 017.475 3.09 10.752 10.752 0 013.063 7.513 10.77 10.77 0 01-3.063 7.54c-.871.851-1.883 1.589-3.007 2.099zM92.146 56.16c2.164 0 4.187.51 5.93 1.39.927.481 1.798 1.048 2.528 1.7-.337-1.673-1.18-3.147-2.332-4.309a8.584 8.584 0 00-6.126-2.552c-2.36 0-4.525.964-6.098 2.552-1.152 1.162-1.996 2.636-2.333 4.31.73-.653 1.602-1.22 2.53-1.702a13.128 13.128 0 015.9-1.389zm5.086 3.09c-1.49-.765-3.203-1.19-5.086-1.19-1.855 0-3.57.425-5.059 1.19-1.433.709-2.641 1.73-3.512 2.949v.028a8.765 8.765 0 002.473 5.046 8.627 8.627 0 005.451 2.523h.029l.084.029h1.096l.084-.029h.028a8.627 8.627 0 005.452-2.523 8.765 8.765 0 002.473-5.046V62.2c-.871-1.22-2.08-2.24-3.513-2.949zM58.03 83.972l-5.002-8.25-4.58 8.307 4.861 10.886 4.721-10.943zm-3.288-9.043l5.143 8.476a1 1 0 01.056.85l-5.705 13.297a1.003 1.003 0 01-.505.567c-.478.227-1.04 0-1.265-.482l-5.93-13.268a1.002 1.002 0 01.029-.85l4.777-8.619a13.698 13.698 0 00-8.009 3.97 13.748 13.748 0 00-4.047 9.752V104.1h27.428V88.62a13.75 13.75 0 00-4.047-9.752 13.435 13.435 0 00-7.925-3.94zM53 57.182c2.417 0 4.693.567 6.688 1.559a14.36 14.36 0 013.12 2.183 10.068 10.068 0 00-2.783-5.358A9.828 9.828 0 0053 52.646a9.828 9.828 0 00-7.025 2.92 10.068 10.068 0 00-2.783 5.358 13.887 13.887 0 013.148-2.183A14.787 14.787 0 0153 57.18zm5.845 3.26A13.158 13.158 0 0053 59.08c-2.136 0-4.131.51-5.845 1.36-1.63.851-3.035 2.014-4.019 3.431v.085c0 .085.028.17.028.227v.028l.028.114.029.113a10.037 10.037 0 002.754 5.33 9.989 9.989 0 006.013 2.892h.169l.084.028h.394l.112.028h.506l.112-.028h.395l.084-.028h.169a9.914 9.914 0 006.013-2.892 10.076 10.076 0 002.783-5.33v-.113l.028-.114V64.1l.028-.028v-.114l.028-.085c-1.012-1.417-2.417-2.58-4.047-3.43z" fill="#919cb4"/></svg>