<svg xmlns="http://www.w3.org/2000/svg" viewBox="0 0 104 104"><path d="M52.694 21.887h.396l.028.029h.369l.311.028h.113l.227.028h.226l.198.029c7.22.622 13.705 3.822 18.547 8.636 5.408 5.436 8.749 12.911 8.749 21.179s-3.341 15.771-8.75 21.18a29.954 29.954 0 01-18.206 8.635h-.17l-.198.029h-.198l-.255.028h-.17l-.113.028h-.368l-.312.029h-.453c-.113.028-.226.028-.34.028h-.792c-.113 0-.227 0-.368-.028h-.425l-.311-.029h-.369l-.141-.028h-.227l-.198-.028c-.113 0-.226 0-.368-.029h-.17a29.954 29.954 0 01-18.206-8.636c-5.408-5.408-8.778-12.911-8.778-21.179s3.37-15.743 8.778-21.18a30.12 30.12 0 0118.66-8.664h.311l.226-.028h.085l.312-.028h.396l.028-.029h1.558-.397.765zM17.668 24.21c.057.51-.311.963-.85 1.02-.509.056-.99-.34-1.018-.85l-.793-8.24c-.029-.311.056-.623.283-.849.198-.227.51-.312.793-.283l8.438.736c.538.028.906.51.877 1.02a.968.968 0 01-1.019.877l-5.918-.51 7.589 7.589a.94.94 0 11-1.331 1.33l-7.56-7.56.51 5.72zm62.066 64.105c-.538-.057-.906-.51-.877-1.048.056-.51.51-.878 1.047-.85l5.72.539-7.589-7.56a.974.974 0 010-1.36.974.974 0 011.36 0l7.588 7.589-.51-5.89a.932.932 0 01.878-1.02c.51-.056.963.34 1.02.879l.707 8.437c.057.284-.057.567-.255.793a.942.942 0 01-.85.255l-8.239-.764zm8.58-63.935c-.057.51-.51.906-1.02.85a.968.968 0 01-.877-1.02l.538-5.72-7.56 7.56a.974.974 0 01-1.36 0 .94.94 0 010-1.33l7.589-7.589-5.89.51c-.51.028-.99-.34-1.02-.878a.932.932 0 01.879-1.019l8.437-.736a.96.96 0 011.048 1.132l-.764 8.24zM24.209 86.417a.966.966 0 011.02.849.955.955 0 01-.85 1.048l-8.24.764a.96.96 0 01-1.133-1.048l.737-8.437a.932.932 0 011.02-.878c.537.028.905.51.877 1.02l-.51 5.889 7.589-7.589c.368-.368.962-.368 1.33 0s.369.991 0 1.36l-7.56 7.56 5.72-.538zM97.204 58.13a.944.944 0 11-1.217-1.444l4.417-3.653H89.701a.949.949 0 01-.934-.962c0-.51.424-.963.934-.963h10.731l-4.502-3.794a.947.947 0 01-.141-1.33.976.976 0 011.359-.114l6.427 5.408a.98.98 0 01.425.793.953.953 0 01-.368.764l-6.428 5.295zm-89.19-1.444a.944.944 0 01-1.218 1.444L.368 52.835A.953.953 0 010 52.071a.98.98 0 01.425-.793l6.427-5.408c.397-.34 1.02-.283 1.331.113.34.397.311.991-.113 1.33l-4.502 3.795h10.73c.51 0 .935.453.935.963a.949.949 0 01-.934.962H3.596l4.417 3.653zm37.828 40.518a.974.974 0 01.141-1.33.944.944 0 011.33.113l3.654 4.417V89.701c0-.51.424-.934.962-.934.51 0 .935.424.935.934v10.731l3.822-4.502a.947.947 0 011.33-.141c.397.34.454.934.114 1.359l-5.408 6.427c-.198.255-.481.425-.793.425a.953.953 0 01-.764-.368l-5.323-6.428zm1.472-89.19a.944.944 0 01-1.33.112.974.974 0 01-.142-1.33L51.165.368A.953.953 0 0151.929 0c.312 0 .595.17.793.425l5.408 6.427c.34.397.283 1.02-.113 1.331-.397.34-.991.311-1.33-.113l-3.823-4.502v10.73c0 .51-.425.935-.935.935a.949.949 0 01-.962-.934V3.596l-3.653 4.417zm-23.416 42.67h9.797c.113-6.003 1.33-11.553 3.312-16.14a44.704 44.704 0 01-5.351-2.095c-4.559 4.785-7.475 11.184-7.758 18.234zm11.694 0h15.375V36.808a49.175 49.175 0 01-9.91-1.19 50.84 50.84 0 01-2.238-.537c-1.925 4.389-3.086 9.769-3.227 15.601zm17.272 0h15.403c-.142-5.833-1.331-11.213-3.256-15.602a42.34 42.34 0 01-2.209.538 49.21 49.21 0 01-9.938 1.19v13.873zm17.3 0h9.768c-.254-7.051-3.17-13.45-7.73-18.235a44.705 44.705 0 01-5.35 2.095c1.981 4.587 3.17 10.137 3.312 16.14zm9.797 1.896h-9.797c-.085 6.201-1.33 11.95-3.37 16.65 1.84.594 3.625 1.274 5.295 2.066a27.847 27.847 0 007.872-18.716zm-11.694 0H52.864v14.413c3.426.056 6.739.453 9.881 1.16.765.17 1.501.34 2.209.539 2.01-4.503 3.228-10.052 3.313-16.112zm-17.3 0H35.592c.085 6.06 1.302 11.61 3.284 16.112a51.67 51.67 0 012.237-.538 48.616 48.616 0 019.854-1.161V52.58zm-17.3 0h-9.77a27.847 27.847 0 007.872 18.716c1.67-.792 3.455-1.472 5.295-2.066-2.067-4.7-3.285-10.449-3.398-16.65zm19.197-28.739v11.071a47.318 47.318 0 009.542-1.133 40.14 40.14 0 001.783-.453 20.113 20.113 0 00-.849-1.529c-2.746-4.587-6.427-7.56-10.476-7.956zm0 45.049v10.93c4.049-.397 7.73-3.37 10.476-7.986.283-.453.538-.906.793-1.387-.595-.17-1.19-.311-1.784-.453a48.61 48.61 0 00-9.485-1.104zm-1.897 10.93V68.89a48.575 48.575 0 00-9.458 1.104c-.594.142-1.189.283-1.783.453.254.481.51.934.764 1.387 2.747 4.616 6.428 7.589 10.477 7.985zm0-44.908V23.841c-4.05.396-7.73 3.37-10.477 7.956-.283.51-.566 1.02-.821 1.53.566.17 1.19.31 1.784.452 3.03.68 6.2 1.076 9.514 1.133zm-13.11 36.073a43.362 43.362 0 00-4.644 1.727c3.03 2.69 6.626 4.757 10.59 5.946-1.84-1.5-3.511-3.482-4.927-5.86-.34-.567-.68-1.19-1.02-1.813zm32.76 1.727a39.26 39.26 0 00-4.644-1.727 27.344 27.344 0 01-.99 1.812c-1.416 2.379-3.087 4.36-4.927 5.861a27.842 27.842 0 0010.56-5.946zm-19.82-50.825h.368-.368zm15.261 10.93a41.903 41.903 0 004.672-1.784 27.95 27.95 0 00-10.674-6.06c1.84 1.501 3.51 3.483 4.926 5.862a26.02 26.02 0 011.076 1.982zM33.1 31.033c1.5.68 3.086 1.274 4.7 1.784.34-.708.708-1.36 1.076-1.982 1.416-2.379 3.086-4.36 4.927-5.861A28.063 28.063 0 0033.1 31.033z" fill="#eb463d"/></svg>