<svg xmlns="http://www.w3.org/2000/svg" viewBox="0 0 66 74"><path d="M11.123 12.57c0 .512.427.939.94.939.255 0 .511-.085.71-.256C17.1 9.385 22.48 6.968 28.2 6.086l.113-.028.029.113c.284.768.654 1.536 1.252 2.133.91.91 2.163 1.337 3.444 1.337 1.224 0 2.476-.455 3.358-1.337a4.954 4.954 0 001.423-3.47c0-1.307-.512-2.474-1.423-3.384C35.514.57 34.262 0 33.038 0c-1.28 0-2.533.54-3.444 1.45a4.826 4.826 0 00-1.338 2.617l-.028.085h-.085c-6.176.882-11.982 3.612-16.678 7.707-.285.256-.342.37-.342.711zm23.879-9.81c.54.54.91 1.28.91 2.076s-.37 1.507-.91 2.076a2.805 2.805 0 01-1.964.825 3 3 0 01-2.078-.825 2.996 2.996 0 01-.825-2.076c0-.797.285-1.536.825-2.076a2.907 2.907 0 012.078-.854c.74 0 1.451.342 1.964.854zM8.562 32.962c.085.256.17.426.341.625l5.095 5.006-1.509 7.195c-.085.483.142 1.052.712 1.137.256.086.54-.028.768-.17l4.554-2.816v-.028l.057-.029c.284-.199.455-.455.455-.796a.954.954 0 00-.968-.938c-.17 0-.37.085-.512.17l-2.817 1.735 1.138-5.66c.114-.312-.057-.654-.256-.853l-3.956-3.867 5.237-.54c.284 0 .569-.2.654-.484v-.029l2.59-4.692 1.594 3.043v.085c.2.256.54.512.854.512.54 0 .967-.455.967-.967 0-.085 0-.341-.056-.398l-.057-.029v-.142l-2.448-4.607c-.256-.427-.854-.626-1.28-.341-.172.057-.37.142-.456.313l-3.074 5.915-6.745.597c-.541.114-.883.54-.883 1.053zm33.953-2.788c-.028.114-.085.285-.085.427 0 .512.427.967.94.967.312 0 .654-.256.853-.512v-.085l1.594-3.043 2.59 4.692c.17.313.398.512.797.512l5.094.54-3.927 3.868c-.228.2-.37.54-.285.854l1.167 5.659-2.818-1.735c-.17-.085-.37-.17-.54-.17a.947.947 0 00-.94.938c0 .341.143.597.427.796l.057.029v.028l4.668 2.816h.028c.171.17.399.256.655.17.54-.085.882-.625.797-1.137l-1.509-7.195 5.066-5.006c.114-.199.257-.37.257-.597 0-.54-.342-.967-.854-1.08l-6.66-.598-3.188-5.915c-.085-.171-.17-.228-.341-.313-.484-.256-1.025-.142-1.281.341L42.6 30.09l-.086.085zM22.65 66.52a30.507 30.507 0 01-13.832-9.954l-.086-.113.086-.086a4.293 4.293 0 001.167-2.104c.398-1.223.142-2.588-.484-3.669-.626-1.08-1.651-1.905-2.875-2.218-1.224-.313-2.561-.17-3.643.483-1.081.626-1.907 1.678-2.191 2.901-.854 2.56.91 5.148 3.33 5.973.996.199 1.935.199 2.874-.2l.086-.028.085.085c3.87 4.949 8.994 8.703 14.999 10.75.256.086.598.086.854-.085.853-.512.54-1.422-.37-1.735zM6.114 50.196c.711.2 1.338.74 1.736 1.365.398.683.54 1.507.313 2.275-.228.768-.655 1.365-1.366 1.764-.683.312-1.395.426-2.135.227-1.65-.256-2.504-2.076-2.077-3.555.484-1.735 1.821-2.332 3.529-2.076zM4.122 16.267c-2.448.598-4.156 3.413-3.33 5.887.199.967.768 1.85 1.508 2.503l.085.057-.028.085C.023 30.658-.603 37.085.592 43.257c.057.227.228.512.484.597h.029v.028c.455.256 1.053.143 1.309-.34.085-.2.085-.541.085-.74v-.086c-1.11-5.688-.54-11.603 1.48-17.007l.029-.113.114.028c.825.17 1.679.2 2.504 0 1.196-.426 2.22-1.223 2.875-2.332.654-1.138.854-2.389.484-3.669-.655-2.588-3.302-4.01-5.863-3.356zm.54 1.82c.74-.227 1.48-.085 2.163.313s1.11.996 1.338 1.764c.2.71.114 1.535-.313 2.19-.398.682-.996 1.109-1.736 1.336-.769.228-1.509.086-2.192-.313-.683-.398-1.11-.995-1.337-1.763-.228-.71-.057-1.536.313-2.19a2.797 2.797 0 011.764-1.336zm57.178-1.82c-.91-.312-1.992-.17-2.874.086l-.086.028-.056-.085c-3.843-4.92-9.08-8.617-15-10.637-1.45-.511-1.707 1.394-.512 1.82 5.465 1.935 10.275 5.376 13.946 9.84l.086.115-.114.085c-.626.54-1.025 1.308-1.224 2.104-.285 1.28-.2 2.531.484 3.67.626 1.108 1.65 1.905 2.874 2.331 1.253.285 2.505.17 3.615-.483 1.167-.683 1.935-1.735 2.305-2.987.626-2.56-.854-5.29-3.444-5.887zm1.537 5.347c-.227 1.621-2.02 2.503-3.5 2.076-.769-.227-1.367-.654-1.765-1.336a2.832 2.832 0 01-.313-2.19c.228-.74.74-1.365 1.366-1.764.683-.398 1.509-.54 2.277-.312 1.395.483 2.448 2.019 1.935 3.526zM61.84 57.733c2.619-.882 4.07-3.243 3.444-5.973a5.195 5.195 0 00-1.537-2.417l-.057-.057.029-.085a33.673 33.673 0 001.679-18.515c0-.256-.228-.512-.427-.654-.455-.284-1.053-.085-1.31.342-.17.256-.17.511-.084.796 1.024 5.773.569 11.66-1.566 17.12l-.057.114-.114-.028c-.853-.2-1.622-.2-2.476 0-1.224.313-2.248 1.137-2.874 2.218-.655 1.11-.797 2.446-.484 3.669.626 2.56 3.33 4.095 5.834 3.47zm1.537-5.46c.427 1.421-.37 3.27-1.964 3.526-1.622.483-3.073-.399-3.614-1.963-.2-.768-.057-1.592.313-2.303.427-.598 1.025-1.138 1.765-1.337 1.48-.2 3.273.37 3.5 2.076zm-10.445 8.702c-4.297 3.64-9.563 6.086-15.141 6.939h-.142l-.029-.114c-.17-.768-.683-1.536-1.224-2.104-.882-.882-2.134-1.45-3.358-1.45-1.28 0-2.533.54-3.444 1.45-.882.881-1.338 2.133-1.338 3.355 0 1.28.427 2.56 1.338 3.499.91.91 2.163 1.45 3.444 1.45 1.224 0 2.476-.597 3.358-1.45.712-.74 1.139-1.621 1.338-2.617v-.085l.114-.029c6.261-.881 11.982-3.583 16.763-7.678.2-.228.342-.484.342-.797a.953.953 0 00-.94-.967c-.227 0-.398.057-.512.143-.17.113-.398.312-.569.455zm-17.93 6.114c.512.512.91 1.252.91 1.962 0 .797-.37 1.536-.91 2.105a2.805 2.805 0 01-1.964.825 3 3 0 01-2.078-.825 3.014 3.014 0 01-.825-2.105c0-.71.313-1.45.825-1.962.57-.54 1.281-.938 2.078-.938.74 0 1.451.426 1.964.938zm-1.196-41.692c-.085-.143-.17-.342-.341-.427-.484-.284-1.053-.028-1.28.427l-4.27 8.105-9.25.91c-.256 0-.512.057-.683.256-.398.398-.285 1.024.085 1.393l6.945 6.798-2.078 9.953c0 .313 0 .455.171.711.256.427.854.626 1.31.37l8.623-5.318 8.538 5.204c.228.143.399.285.683.171a.963.963 0 00.797-1.11l-2.106-9.98 7.058-6.798a.959.959 0 00.257-.625c.085-.512-.342-1.024-.883-1.024l-9.221-.91-4.355-8.105zm-7.086 16.38l-5.892-5.744 7.77-.71c.256 0 .598-.172.683-.428l3.757-7.053 3.671 7.053c.171.256.427.427.769.427l7.656.711-5.806 5.773c-.256.256-.342.598-.256.967l1.622 8.333-7.258-4.437c-.256-.255-.654-.17-.91 0l-7.258 4.437 1.736-8.333c.086-.341-.085-.71-.284-.995z" fill-rule="evenodd" clip-rule="evenodd" fill="#eb463d"/></svg>