<svg xmlns="http://www.w3.org/2000/svg" viewBox="0 0 102 96"><path d="M50.723 48.551c2.16 0 4.117.87 5.548 2.291a7.71 7.71 0 012.278 5.482 7.71 7.71 0 01-2.278 5.481 7.84 7.84 0 01-5.548 2.292 7.72 7.72 0 01-5.52-2.292 7.71 7.71 0 01-2.277-5.481 7.71 7.71 0 012.278-5.482 7.823 7.823 0 015.519-2.291zM35.596 87.038l3.388-3.335a1.01 1.01 0 011.401.029c.38.377.38.986-.029 1.363l-5.022 4.93-.03.03h-.029v.028l-.03.03h-.028v.028h-.03v.03h-.029l-.029.028h-.03l-.028.03h-.059v.028h-.059l-.028.03h-.059l-.029.028H34.4l-.03-.029h-.028l-.059-.029h-.059l-.028-.029h-.03V90.2h-.058v-.029h-.03l-.028-.029-.03-.029h-.029v-.029h-.029l-.03-.029v-.029l-5.197-5.046c-.409-.377-.409-.986-.03-1.363s.994-.406 1.373-.03l3.563 3.452V75.843c0-.522.438-.957.993-.957.525 0 .963.435.963.957v11.195zm32.998 0l3.387-3.335c.38-.377 1.022-.348 1.402.029.38.377.35.986-.03 1.363l-5.051 4.93v.03h-.03v.028l-.029.03h-.029v.028h-.03l-.028.03-.03.028h-.058v.03h-.058l-.03.028h-.029l-.029.03h-.058l-.03.028h-.437l-.029-.029h-.029l-.058-.029h-.059l-.029-.029h-.03V90.2h-.058l-.029-.029-.029-.029h-.03v-.029h-.028l-.03-.029-.029-.029v-.029l-5.227-5.046a.958.958 0 010-1.363c.38-.377.993-.406 1.373-.03l3.562 3.452V75.843c0-.522.438-.957.964-.957.555 0 .993.435.993.957v11.195zm-16.528 5.685l3.387-3.336a.95.95 0 011.373.03c.38.376.38.985 0 1.362l-5.052 4.93v.03h-.03l-.029.029-.029.029h-.029v.029h-.03l-.028.029-.03.029h-.029v.029h-.059l-.028.029h-.059l-.029.029h-.058l-.03.029h-.407v-.029h-.088l-.03-.029h-.058v-.029h-.058l-.03-.029-.028-.029h-.059v-.029h-.029l-.03-.029v-.029h-.028v-.029h-.03l-.029-.03-5.198-5.046a.958.958 0 010-1.363c.35-.406.993-.406 1.373-.029l3.562 3.452V81.527c0-.522.438-.986.964-.986a1 1 0 01.993.986v11.196zM89.15 34.05v4.495c0 .377-.204.667-.496.841L70.813 51.538h1.168a1 1 0 01.993.986v7.6a.981.981 0 01-.993.985h-4.205a15.288 15.288 0 01-.672 1.944 13.817 13.817 0 01-.934 1.856l2.979 2.958a.993.993 0 010 1.392l-5.403 5.366c-.38.377-.992.377-1.401 0l-2.95-2.959c-.613.348-1.226.639-1.898.9a19.38 19.38 0 01-1.956.696v4.176c0 .522-.438.957-.993.957h-7.65a.969.969 0 01-.964-.957v-4.176a22.933 22.933 0 01-1.986-.696 15.76 15.76 0 01-1.869-.9L39.1 74.625a.974.974 0 01-1.372 0l-5.402-5.366a.943.943 0 010-1.392l2.95-2.958a18.258 18.258 0 01-.906-1.856 15.288 15.288 0 01-.672-1.944h-4.205a.981.981 0 01-.993-.986v-7.599a1 1 0 01.993-.986h1.782L13.433 39.386c-.292-.174-.497-.464-.497-.841V34.05c-3.446-.232-6.54-1.74-8.848-4.032A13.62 13.62 0 010 20.244c0-3.8 1.548-7.28 4.088-9.774a13.904 13.904 0 019.842-4.03c3.825 0 7.33 1.537 9.84 4.031a13.766 13.766 0 014.06 9.774c0 3.828-1.548 7.28-4.06 9.774-2.306 2.291-5.401 3.8-8.876 4.032v4.002l18.98 12.906c.146-.464.322-.928.497-1.363a18.34 18.34 0 01.905-1.856l-2.95-2.958c-.408-.377-.408-.986 0-1.392l5.403-5.366a.974.974 0 011.372 0l2.979 2.958a15.758 15.758 0 011.869-.899 22.925 22.925 0 011.986-.696V35.21c0-.522.438-.957.963-.957h2.862V27.61h-.204l-.088-.03h-.146c-3.27-.318-6.22-1.797-8.44-3.973a13.766 13.766 0 01-4.058-9.774c0-3.828 1.547-7.28 4.059-9.774A13.91 13.91 0 0150.722 0c3.855 0 7.33 1.537 9.841 4.06a13.62 13.62 0 014.089 9.774c0 3.8-1.548 7.28-4.089 9.774-.38.377-.788.755-1.226 1.074v.029c-2.073 1.595-4.585 2.639-7.359 2.87l-.058.03h-.205v6.642h2.833c.555 0 .993.435.993.957v4.176c.671.203 1.314.435 1.956.696a15.94 15.94 0 011.898.9l2.95-2.96c.409-.376 1.022-.376 1.401 0l5.403 5.367c.38.406.38 1.015 0 1.392l-2.979 2.958c.35.58.672 1.218.934 1.856.234.551.439 1.131.614 1.711l19.477-13.254V34.05c-3.504-.232-6.629-1.712-8.936-4.032a13.62 13.62 0 01-4.088-9.774c0-3.8 1.548-7.28 4.088-9.774A13.904 13.904 0 0188.1 6.44c3.826 0 7.33 1.537 9.841 4.031A13.766 13.766 0 01102 20.244c0 3.828-1.548 7.28-4.059 9.774a13.867 13.867 0 01-8.79 4.032zm-4.613-13.08a.981.981 0 01-.993-.987c0-.522.438-.957.993-.957h3.445l3.359-4.612c.32-.406.934-.522 1.372-.203.438.32.526.929.234 1.364l-3.621 4.93a1.051 1.051 0 01-.847.464h-3.942zm12.44 0a.981.981 0 01-.993-.987c0-.522.438-.957.992-.957h3.008a11.733 11.733 0 00-3.446-7.164 11.839 11.839 0 00-7.475-3.451v2.784a.969.969 0 01-.964.957c-.555 0-.993-.435-.993-.957V8.411a11.98 11.98 0 00-7.475 3.451 11.892 11.892 0 00-3.446 7.164h3.154c.555 0 .993.435.993.957a.981.981 0 01-.993.986h-3.183c.175 2.987 1.49 5.685 3.475 7.686a12.102 12.102 0 007.475 3.422v-3.393c0-.551.438-.986.993-.986.526 0 .964.435.964.986v3.393a11.958 11.958 0 007.475-3.422 11.777 11.777 0 003.475-7.686h-3.037zM18.28 15.43c.292.435.204 1.044-.263 1.334a.95.95 0 01-1.343-.232c-.497-.696-1.256-1.131-2.015-1.334a3.7 3.7 0 00-1.372-.087c-.41.058-.76.203-1.052.377a1.313 1.313 0 00-.525.725c-.292 1.247 1.314 1.943 2.92 2.668 1.577.696 3.183 1.421 3.796 2.813.642 1.48.409 2.727-.321 3.684-.409.55-.993.986-1.665 1.305a6.78 6.78 0 01-2.073.493c-1.84.116-3.825-.58-4.935-2.262a.968.968 0 01.263-1.335.986.986 0 011.372.261c.672 1.045 1.986 1.48 3.183 1.393a4.31 4.31 0 001.402-.32c.38-.173.672-.405.905-.695.321-.436.409-1.016.088-1.74-.321-.726-1.577-1.277-2.833-1.828-2.336-1.044-4.672-2.088-4-4.872a3.168 3.168 0 011.314-1.886 4.283 4.283 0 011.898-.696 5.564 5.564 0 012.073.116c1.227.29 2.395.986 3.183 2.118zm32.443-9.89c1.547 0 2.92.609 3.913 1.595a5.458 5.458 0 011.635 3.915c0 .58-.088 1.19-.292 1.74-.059.145-.117.32-.175.464a6.936 6.936 0 012.482 2.002 6.595 6.595 0 011.43 4.118v2.291a11.854 11.854 0 002.98-7.83c0-3.278-1.344-6.265-3.505-8.411a12.005 12.005 0 00-8.468-3.48c-3.3 0-6.279 1.333-8.44 3.48a11.842 11.842 0 00-3.504 8.41c0 2.727.935 5.279 2.512 7.28v-1.74c0-1.624.584-3.132 1.576-4.321.701-.87 1.665-1.538 2.716-1.973-.029-.116-.087-.232-.117-.348a5.554 5.554 0 011.343-5.598 5.613 5.613 0 013.914-1.594zm2.54 2.987a3.61 3.61 0 00-2.54-1.044c-.964 0-1.87.406-2.512 1.044a3.562 3.562 0 00-1.051 2.523c0 .377.058.754.175 1.073.088.348.263.696.497.986.058.116.116.232.146.377a.943.943 0 01-.76 1.132 5.153 5.153 0 00-2.861 1.682c-.672.84-1.11 1.914-1.11 3.074v3.712a12.069 12.069 0 006.833 2.61h1.285a12.142 12.142 0 006.395-2.262v-4.06a4.7 4.7 0 00-1.022-2.93 4.924 4.924 0 00-2.57-1.74.908.908 0 01-.38-.173.969.969 0 01-.204-1.364c.234-.29.41-.638.555-.986.117-.348.175-.754.175-1.13 0-.987-.408-1.886-1.05-2.524zm-30.895 3.335c-2.16-2.146-5.14-3.48-8.439-3.48s-6.307 1.334-8.468 3.48c-2.161 2.146-3.505 5.105-3.505 8.382S3.3 26.51 5.461 28.655a11.936 11.936 0 008.439 3.48h.059c3.27 0 6.248-1.334 8.41-3.48 2.16-2.146 3.503-5.134 3.503-8.41s-1.343-6.237-3.504-8.383zM13.93 32.135zm36.794-6.438zm6.044 16.183a16.509 16.509 0 00-2.394-.783c-.438-.058-.789-.464-.789-.957v-3.944H47.89v3.944c0 .464-.321.841-.76.957-.846.203-1.634.464-2.423.783-.76.32-1.518.696-2.22 1.131a.984.984 0 01-1.255-.116L38.4 40.082l-4 4.003 2.802 2.813c.322.29.38.812.146 1.189-.438.725-.846 1.48-1.168 2.262a12.99 12.99 0 00-.759 2.35.995.995 0 01-.964.812h-4v5.626h4c.439 0 .847.32.935.754.204.841.467 1.653.788 2.407.322.784.701 1.509 1.14 2.205.262.406.233.928-.118 1.276L34.4 68.563l4 4.003 2.833-2.814a.937.937 0 011.197-.116c.73.435 1.49.812 2.278 1.131.76.32 1.548.58 2.365.783.468.087.818.464.818.958v3.944h5.694v-3.944c0-.436.292-.842.76-.958a18.138 18.138 0 002.423-.783c.76-.319 1.519-.696 2.22-1.102.38-.29.905-.232 1.255.087l2.804 2.814 4.03-4.003-2.804-2.784c-.321-.32-.409-.812-.146-1.218.438-.725.847-1.48 1.168-2.263.321-.754.555-1.537.76-2.349a.995.995 0 01.963-.812h3.971v-5.626h-3.971c-.438 0-.847-.32-.964-.755a12.869 12.869 0 00-.759-2.407c-.321-.783-.7-1.508-1.139-2.204-.263-.377-.233-.928.117-1.247l2.803-2.813-4.03-4.003-2.803 2.813a1.016 1.016 0 01-1.226.145c-.701-.464-1.46-.84-2.249-1.16zM54.87 52.205a5.866 5.866 0 00-4.146-1.71 5.849 5.849 0 00-4.118 1.71h-.029a5.813 5.813 0 00-1.694 4.119 5.72 5.72 0 001.723 4.118 5.849 5.849 0 004.118 1.711 5.866 5.866 0 005.869-5.83c0-1.594-.672-3.044-1.723-4.118z" fill="#ea463c"/></svg>