<svg xmlns="http://www.w3.org/2000/svg" viewBox="0 0 94 94"><path d="M47.014 88.709a5.61 5.61 0 003.992-1.635 5.574 5.574 0 001.647-3.934 5.59 5.59 0 00-1.647-3.962 5.61 5.61 0 00-3.992-1.634 5.61 5.61 0 00-3.992 1.634 5.59 5.59 0 00-1.647 3.962c0 1.524.642 2.937 1.647 3.934l.056.055c1.005.97 2.4 1.58 3.936 1.58zm34.562-11.082c-.586 0-1.116.25-1.48.61-.39.387-.641.914-.641 1.495s.251 1.109.642 1.496c.363.388.893.638 1.48.638s1.144-.25 1.507-.638c.39-.387.642-.914.642-1.496s-.251-1.108-.642-1.496a2.187 2.187 0 00-1.508-.61zm-2.82-.693a4.006 4.006 0 012.82-1.163c1.117 0 2.122.443 2.848 1.163a3.961 3.961 0 010 5.624c-.056.056-.112.083-.167.139a5.81 5.81 0 011.423 1.025 5.694 5.694 0 011.676 4.045v2.631c.614-.387 1.144-.858 1.647-1.357 1.954-1.912 3.126-4.544 3.126-7.48a10.36 10.36 0 00-3.126-7.453c-1.927-1.939-4.579-3.102-7.538-3.102a10.633 10.633 0 00-7.538 3.102 10.448 10.448 0 00-3.099 7.453c0 2.936 1.173 5.568 3.099 7.48a9.79 9.79 0 001.898 1.496v-2.77c0-1.58.642-3.02 1.675-4.045a6.23 6.23 0 011.396-1.025c-.028-.056-.083-.083-.14-.139a3.961 3.961 0 010-5.624zm2.82 6.954a3.9 3.9 0 00-2.735 1.136 3.84 3.84 0 00-1.145 2.743v3.158c0 .194 0 .36.028.499v.055a11.07 11.07 0 003.35.665h1.089c.084-.028.167-.028.251-.028h.028c1.06-.11 2.066-.36 3.015-.72v-.028c.028-.138.028-.277.028-.443v-3.158c0-1.053-.447-2.023-1.145-2.743a3.917 3.917 0 00-2.764-1.136zm-9.492-10.555L60.917 62.279l-.921.886c-.419.416-.95.638-1.508.638s-1.116-.222-1.535-.638l-2.234-2.216a18.62 18.62 0 01-1.507.72 15.4 15.4 0 01-1.592.554v3.131c0 .61-.223 1.136-.614 1.524s-.949.637-1.535.637h-1.536v8.228a7.428 7.428 0 014.383 2.105 7.4 7.4 0 012.206 5.292c0 2.05-.838 3.906-2.206 5.264-1.368 1.33-3.238 2.188-5.304 2.188a7.556 7.556 0 01-5.249-2.133l-.055-.055a7.385 7.385 0 01-2.206-5.264 7.4 7.4 0 012.206-5.292 7.353 7.353 0 014.355-2.105v-8.228h-1.508a2.16 2.16 0 01-1.535-.637 2.125 2.125 0 01-.642-1.524v-3.13c-.53-.167-1.061-.333-1.564-.555-.53-.221-1.033-.443-1.507-.72l-2.234 2.216a2.188 2.188 0 01-1.535.638 2.188 2.188 0 01-1.536-.638l-.921-.886-11.14 11.054a12.405 12.405 0 013.127 8.228 12.39 12.39 0 01-3.657 8.81A12.553 12.553 0 0113.093 94h-1.366l-.028-.028h-.252c-.083 0-.167-.027-.25-.027h-.057a12.597 12.597 0 01-7.454-3.574A12.3 12.3 0 010 81.56c0-3.408 1.396-6.538 3.685-8.782a12.516 12.516 0 018.85-3.63c3.071 0 5.89 1.08 8.069 2.882L31.77 60.949l-1.229-1.219c-.446-.416-.642-.97-.642-1.524s.196-1.08.642-1.496l2.234-2.244c-.28-.47-.503-.97-.726-1.496-.223-.498-.391-1.025-.558-1.551h-3.155c-.614 0-1.145-.25-1.536-.637a2.125 2.125 0 01-.642-1.524v-1.44h-8.236a7.253 7.253 0 01-2.121 4.321 7.516 7.516 0 01-5.333 2.189 7.499 7.499 0 01-5.304-2.189 7.337 7.337 0 01-2.206-5.264c0-2.05.838-3.906 2.206-5.263a7.499 7.499 0 015.304-2.19c2.094 0 3.965.832 5.333 2.19l.055.055a7.353 7.353 0 012.066 4.266h8.236v-1.551c0-.582.251-1.136.642-1.524.391-.388.922-.61 1.536-.61h3.155c.167-.553.335-1.052.558-1.578.223-.5.447-.998.726-1.496l-2.234-2.217c-.446-.415-.642-.97-.642-1.523 0-.555.224-1.08.642-1.496l1.033-1.053-10.971-10.916a12.647 12.647 0 01-7.51 2.91H11.92l-.056-.028h-.335l-.056-.028h-.028c-.083 0-.167 0-.25-.028h-.057a12.408 12.408 0 01-7.454-3.546C1.395 18.977 0 15.874 0 12.439s1.396-6.538 3.685-8.782C5.947 1.385 9.073 0 12.535 0s6.589 1.385 8.878 3.657a12.325 12.325 0 013.657 8.782c0 3.158-1.172 6.04-3.126 8.228l10.971 10.888 1.09-1.08.083-.056c.39-.388.921-.582 1.452-.582a2.19 2.19 0 011.535.637l2.234 2.217c.474-.25.977-.499 1.507-.72a25.884 25.884 0 011.564-.555v-3.13c0-.582.25-1.136.642-1.524.39-.388.921-.637 1.535-.637h1.508v-8.09a7.548 7.548 0 01-4.355-2.133 7.385 7.385 0 01-2.206-5.264 7.29 7.29 0 012.206-5.263v-.028a7.543 7.543 0 015.304-2.161c2.066 0 3.936.831 5.304 2.16l.056.056a7.386 7.386 0 012.15 5.236c0 2.05-.838 3.907-2.206 5.264a7.626 7.626 0 01-4.383 2.133v8.09h1.536c.586 0 1.144.25 1.535.637l.056.083c.363.36.558.887.558 1.44v3.131c.559.167 1.061.36 1.592.555.502.221 1.005.47 1.507.72l2.234-2.217a2.188 2.188 0 011.535-.637c.559 0 1.09.222 1.508.637l1.117 1.081 10.971-10.888a12.322 12.322 0 01-3.154-8.228c0-3.435 1.423-6.538 3.685-8.782A12.425 12.425 0 0181.465 0c3.462 0 6.616 1.385 8.878 3.657C92.604 5.9 94 9.004 94 12.439s-1.396 6.538-3.657 8.81c-2.038 1.995-4.746 3.325-7.761 3.574h-.056l-.028.028h-.335l-.084.027h-1.173c-2.847-.138-5.444-1.191-7.482-2.909l-11 10.916 1.062 1.025.055.083c.391.415.587.914.587 1.44 0 .555-.224 1.109-.642 1.524l-2.234 2.217c.251.498.503.997.726 1.496.195.526.39 1.025.558 1.579h3.155a2.18 2.18 0 011.536.61l.055.082c.363.388.587.887.587 1.44v1.552h8.208a7.53 7.53 0 012.15-4.321 7.499 7.499 0 015.304-2.19c2.094 0 3.964.832 5.332 2.19a7.476 7.476 0 012.178 5.263c0 2.05-.838 3.934-2.178 5.264a7.516 7.516 0 01-5.332 2.189 7.485 7.485 0 01-5.249-2.134l-.056-.055a7.447 7.447 0 01-2.15-4.322H67.87v1.44a2.13 2.13 0 01-.642 1.525c-.391.387-.95.637-1.536.637h-3.155a25.418 25.418 0 01-.558 1.551 18.696 18.696 0 01-.726 1.496l2.234 2.217c.418.415.642.97.642 1.523a2.16 2.16 0 01-.642 1.524l-1.229 1.219 11.167 11.082a12.606 12.606 0 018.04-2.882c3.463 0 6.617 1.386 8.879 3.63S94 78.153 94 81.56a12.39 12.39 0 01-3.657 8.81 12.607 12.607 0 01-7.761 3.601h-.252l-.056.028h-1.368a12.484 12.484 0 01-8.291-3.63 12.414 12.414 0 01-3.685-8.81c0-3.13 1.2-6.01 3.154-8.227zm-59.66 2.438c1.116 0 2.121.443 2.847 1.163.698.72 1.173 1.718 1.173 2.798 0 1.109-.475 2.106-1.173 2.826-.056.056-.112.083-.167.139.53.277 1.005.61 1.396 1.025a5.605 5.605 0 011.703 4.045v2.77a9.62 9.62 0 001.87-1.496 10.488 10.488 0 003.127-7.48c0-2.91-1.2-5.541-3.127-7.453-1.926-1.939-4.578-3.102-7.538-3.102-2.931 0-5.611 1.163-7.538 3.102-1.926 1.912-3.126 4.544-3.126 7.453 0 2.936 1.2 5.568 3.126 7.48.503.499 1.061.97 1.647 1.357v-2.631c0-1.58.643-3.02 1.703-4.045a6.23 6.23 0 011.396-1.025c-.055-.056-.111-.083-.14-.139a3.961 3.961 0 010-5.624 4.006 4.006 0 012.82-1.163zm1.507 2.465c-.39-.36-.921-.61-1.507-.61s-1.117.25-1.508.61c-.39.388-.614.915-.614 1.496s.223 1.109.614 1.496c.39.388.921.638 1.508.638s1.116-.25 1.507-.638c.39-.387.614-.914.614-1.496s-.223-1.108-.614-1.496zm-1.507 5.652c-1.061 0-2.038.443-2.764 1.136-.698.72-1.145 1.69-1.145 2.743v3.158c0 .166.028.305.028.443v.028c.95.36 1.982.61 3.043.72a.77.77 0 01.251.028h1.117a10.892 10.892 0 003.322-.665l.028-.055c0-.139.028-.305.028-.5v-3.157c0-1.053-.447-2.023-1.145-2.743-.725-.693-1.675-1.136-2.763-1.136zM81.576 8.505c-.586 0-1.116.222-1.48.61a2.11 2.11 0 00-.641 1.496c0 .581.251 1.108.642 1.496.363.388.893.61 1.48.61s1.144-.222 1.507-.61a2.11 2.11 0 00.642-1.496 2.11 2.11 0 00-.642-1.496c-.363-.388-.921-.61-1.508-.61zm-2.82-.692a4.006 4.006 0 012.82-1.164c1.117 0 2.122.443 2.848 1.164.726.692 1.173 1.69 1.173 2.798s-.447 2.077-1.173 2.798l-.167.166c.53.25 1.005.61 1.423 1.025a5.694 5.694 0 011.676 4.045v2.604a9.581 9.581 0 001.647-1.33c1.954-1.911 3.126-4.543 3.126-7.48 0-2.909-1.172-5.568-3.126-7.48a10.651 10.651 0 00-7.538-3.103c-2.932 0-5.584 1.191-7.538 3.103a10.513 10.513 0 00-3.099 7.48c0 2.937 1.173 5.569 3.099 7.48a12.5 12.5 0 001.898 1.496v-2.77c0-1.58.642-3.02 1.675-4.045a6.358 6.358 0 011.396-1.053l-.14-.138c-.725-.72-1.172-1.69-1.172-2.798s.447-2.106 1.173-2.798zm2.82 6.953a3.9 3.9 0 00-2.735 1.136c-.726.693-1.145 1.662-1.145 2.743v3.13c0 .194 0 .36.028.527v.055a11.07 11.07 0 003.35.665h.81l.14-.028h.139c.084 0 .167 0 .251-.027h.028a9.997 9.997 0 003.015-.72c.028-.14.028-.305.028-.472v-3.13a3.86 3.86 0 00-1.145-2.743 3.917 3.917 0 00-2.764-1.136zM60.498 33.577c-.028 0-.028-.027-.055-.027-.028-.028-.028-.056-.056-.056l-1.703-1.717a.303.303 0 00-.196-.084.254.254 0 00-.195.084l-2.764 2.742a.966.966 0 01-1.145.139 15.255 15.255 0 00-1.898-.97 16.08 16.08 0 00-1.954-.637.948.948 0 01-.782-.914v-3.851a.398.398 0 00-.056-.194h-.028a.254.254 0 00-.195-.083h-4.914c-.084 0-.167.028-.195.083-.056.028-.084.11-.084.194v3.85a.919.919 0 01-.726.887c-.698.166-1.368.388-2.01.665-.642.277-1.284.582-1.87.942-.363.25-.866.194-1.201-.11l-2.736-2.743a.303.303 0 00-.195-.084.303.303 0 00-.196.084l-1.759 1.745v.028h-.028l-1.703 1.69a.298.298 0 00-.083.194.25.25 0 00.083.193l2.736 2.743a.874.874 0 01.14 1.136c-.363.61-.67 1.219-.95 1.884a12.175 12.175 0 00-.641 1.94.951.951 0 01-.922.775h-3.88a.318.318 0 00-.224.083c-.027.055-.083.11-.083.194v4.876c0 .083.056.166.083.194.056.055.14.083.224.083h3.88c.42 0 .782.305.894.72.167.693.39 1.358.67 1.995.251.637.586 1.274.949 1.856a.964.964 0 01-.14 1.191l-2.736 2.715c-.055.056-.083.111-.083.194s.028.139.083.194l3.49 3.463a.254.254 0 00.196.083c.055 0 .14-.027.195-.083l2.736-2.715c.307-.305.782-.388 1.145-.138.614.36 1.256.665 1.926.942.614.249 1.284.47 1.954.637a.948.948 0 01.782.914v3.851c0 .083.028.166.084.222a.32.32 0 00.195.083h4.914c.083 0 .14-.056.195-.083a.313.313 0 00.084-.222v-3.85c0-.416.28-.777.726-.887a13.13 13.13 0 002.01-.665c.642-.25 1.256-.582 1.87-.942.363-.222.866-.194 1.173.138l2.764 2.715a.254.254 0 00.195.083.3.3 0 00.196-.083l3.49-3.463c.055-.055.083-.11.083-.194s-.028-.138-.084-.194l-2.763-2.715c-.28-.304-.363-.775-.14-1.136a15.33 15.33 0 00.977-1.911c.251-.61.475-1.274.642-1.94a.951.951 0 01.922-.775h3.88c.084 0 .14-.028.196-.083.055-.028.083-.111.083-.194v-4.876a.296.296 0 00-.056-.166l-.027-.028a.254.254 0 00-.196-.083h-3.88a.895.895 0 01-.894-.72c-.167-.665-.419-1.358-.67-1.995a16.634 16.634 0 00-.95-1.856.917.917 0 01.113-1.164l2.763-2.743a.25.25 0 00.084-.193c0-.056-.028-.111-.084-.167l-1.675-1.69zM12.424 6.65a4.02 4.02 0 012.847 1.164c.698.692 1.173 1.69 1.173 2.798s-.475 2.077-1.173 2.798c-.056.055-.112.11-.167.138A5.27 5.27 0 0116.5 14.6a5.605 5.605 0 011.703 4.045v2.77c.67-.443 1.312-.942 1.87-1.496a10.488 10.488 0 003.127-7.48c0-2.909-1.2-5.568-3.127-7.48a10.651 10.651 0 00-7.538-3.103A10.7 10.7 0 004.997 4.96a10.537 10.537 0 00-3.126 7.48c0 2.937 1.2 5.569 3.126 7.48.503.499 1.061.942 1.647 1.33v-2.604c0-1.58.643-3.02 1.703-4.045a5.48 5.48 0 011.396-1.025.736.736 0 01-.14-.166c-.725-.72-1.172-1.69-1.172-2.798s.447-2.106 1.173-2.798a4.006 4.006 0 012.82-1.164zm1.507 2.466c-.39-.388-.921-.61-1.507-.61s-1.117.222-1.508.61c-.39.387-.614.914-.614 1.496 0 .581.223 1.108.614 1.496.39.388.921.61 1.508.61s1.116-.222 1.507-.61a2.09 2.09 0 00.614-1.496c0-.582-.223-1.109-.614-1.496zm-1.507 5.651c-1.061 0-2.038.444-2.764 1.136a3.858 3.858 0 00-1.145 2.743v3.13c0 .167.028.333.028.471.95.388 1.982.638 3.043.72a.77.77 0 00.251.028h.168l.111.028h.838a10.892 10.892 0 003.322-.665l.028-.055c0-.166.028-.333.028-.527v-3.13a3.86 3.86 0 00-1.145-2.743c-.725-.692-1.675-1.136-2.763-1.136zm76.746 32.11a5.524 5.524 0 00-1.647-3.962c-1.033-.998-2.429-1.635-3.992-1.635-1.564 0-2.96.637-3.993 1.635-1.005 1.025-1.647 2.41-1.647 3.961 0 1.552.642 2.937 1.675 3.962l.028.028a5.57 5.57 0 003.937 1.607c1.563 0 2.96-.638 3.992-1.635a5.524 5.524 0 001.647-3.962zM6.505 42.913a5.524 5.524 0 00-1.647 3.961c0 1.552.614 2.937 1.647 3.962a5.66 5.66 0 007.957 0 5.524 5.524 0 001.647-3.962 5.579 5.579 0 00-1.592-3.906l-.055-.055a5.66 5.66 0 00-7.957 0zM51.006 6.677a5.61 5.61 0 00-3.992-1.635 5.61 5.61 0 00-3.992 1.635 5.59 5.59 0 00-1.647 3.961c0 1.524.642 2.937 1.647 3.934 1.033 1.025 2.429 1.663 3.992 1.663 1.563 0 2.96-.638 3.992-1.663a5.574 5.574 0 001.647-3.934 5.599 5.599 0 00-1.619-3.934l-.028-.027zm-3.992 31.638c2.373 0 4.523.942 6.058 2.493a8.355 8.355 0 012.513 6.012c0 2.355-.95 4.488-2.513 6.04a8.6 8.6 0 01-6.058 2.493 8.717 8.717 0 01-6.086-2.494c-1.536-1.551-2.513-3.684-2.513-6.04 0-2.354.977-4.487 2.513-6.01a8.599 8.599 0 016.086-2.494zm4.746 3.795a6.811 6.811 0 00-4.746-1.94 6.761 6.761 0 00-4.746 1.94c-1.2 1.22-1.954 2.881-1.954 4.71s.753 3.518 1.954 4.71a6.761 6.761 0 004.746 1.939 6.811 6.811 0 004.746-1.94c1.2-1.19 1.954-2.88 1.954-4.71s-.754-3.49-1.954-4.709z" fill="#f03f2c"/></svg>