<svg xmlns="http://www.w3.org/2000/svg" viewBox="0 0 82 86"><path d="M1.772 49.097a.914.914 0 01.114.394 39.34 39.34 0 004.806 13.293c4.834 8.337 12.468 14.59 21.628 17.66l.735.225-3.364-4.45a.976.976 0 01.198-1.352c.452-.31 1.046-.225 1.357.197l5.117 6.844c.085.085.113.197.17.31a.97.97 0 01-.679 1.183l-9.132 2.563c-.509.14-1.046-.141-1.187-.648a.954.954 0 01.65-1.183l6.022-1.718-.735-.225c-9.5-3.267-17.444-9.773-22.448-18.448C2.536 59.462.839 54.617.02 49.744a.926.926 0 01.452-.985c.452-.254 1.046-.113 1.3.338zm78.456-12.196c-.057-.112-.114-.225-.114-.366a39.952 39.952 0 00-4.806-13.293C70.474 14.905 62.84 8.652 53.68 5.582l-.735-.253 3.364 4.478a.956.956 0 01-.226 1.352.95.95 0 01-1.329-.197l-5.117-6.844c-.085-.085-.113-.197-.17-.31a.97.97 0 01.679-1.183L59.278.034a.975.975 0 011.187.676.954.954 0 01-.65 1.183l-6.022 1.69.735.253c9.5 3.24 17.444 9.745 22.448 18.42 2.488 4.309 4.185 9.125 5.004 13.998v.028a.926.926 0 01-.452.985.97.97 0 01-1.3-.366zm-45.66-10.223c.48-.198.99-.367 1.47-.535.424-.085.764-.451.764-.902v-4.619h8.566v4.563c0 .394.283.789.679.901.537.17 1.074.338 1.583.535.48.197.99.45 1.47.704a.993.993 0 001.16-.169l3.194-3.182L59.532 30l-3.11 3.098a.925.925 0 00-.14 1.127c.282.507.536 1.042.762 1.549a14.6 14.6 0 01.594 1.549c.085.422.452.732.933.732h4.297v8.534h-4.127a.934.934 0 00-.905.704l-.085.197c1.3-.31 2.658-.507 4.043-.507.99 0 1.95.113 2.884.282.056-.197.085-.366.085-.563v-8.731c0-.507-.198-.958-.51-1.268a1.802 1.802 0 00-1.271-.535h-3.76c-.114-.394-.283-.76-.453-1.155-.141-.366-.34-.732-.509-1.07l2.686-2.676A1.86 1.86 0 0061.455 30c0-.45-.17-.93-.509-1.267l-6.22-6.197a1.776 1.776 0 00-1.272-.507c-.452 0-.905.17-1.272.507l-2.8 2.817c-.339-.17-.678-.338-1.045-.479-.34-.14-.707-.253-1.075-.394v-3.97c0-.48-.198-.93-.509-1.24v-.028a1.902 1.902 0 00-1.272-.507H36.69c-.481 0-.933.197-1.273.507a1.887 1.887 0 00-.509 1.268v4.027c-.367.14-.706.254-1.046.394s-.707.31-1.018.451l-2.855-2.845a1.874 1.874 0 00-1.272-.507c-.48 0-.933.17-1.272.507l-6.22 6.197a1.81 1.81 0 00-.51 1.267c0 .45.17.901.51 1.267l2.77 2.76a17.1 17.1 0 00-.48 1.043c-.142.366-.283.704-.424 1.098h-3.902a1.783 1.783 0 00-1.781 1.803v8.73c0 .48.198.93.509 1.268.34.31.791.535 1.272.535h3.704c.113.394.254.789.396 1.155.17.394.339.788.508 1.155l-2.572 2.59-.057.057a1.73 1.73 0 00-.452 1.183c0 .479.17.93.509 1.267l6.22 6.197c.339.337.791.535 1.272.535.452 0 .904-.198 1.272-.535l2.431-2.45c.396.196.82.394 1.216.563.424.168.848.337 1.272.478v3.436c0 .507.198.93.51 1.268.339.338.79.535 1.272.535h8.792c.17 0 .34-.028.509-.085a15.97 15.97 0 01.226-6.73l-.113.027c-.424.085-.735.479-.735.93v3.943h-8.566v-4a.965.965 0 00-.679-.9c-.594-.17-1.16-.395-1.725-.62a29.328 29.328 0 01-1.64-.79c-.367-.253-.847-.196-1.187.114L28.716 60.7l-6.079-6.055 2.997-2.957a.935.935 0 00.17-1.099 16.957 16.957 0 01-.735-1.633 18.116 18.116 0 01-.566-1.606.937.937 0 00-.904-.76H19.3v-8.534h4.467a.968.968 0 00.905-.648 17.9 17.9 0 01.594-1.577c.197-.507.452-1.014.706-1.464.227-.367.198-.874-.141-1.183L22.637 30l6.079-6.027 3.251 3.239a.98.98 0 001.13.169c.482-.254.99-.507 1.471-.704z" fill-rule="evenodd" clip-rule="evenodd" fill="#ea463c"/><path d="M61.794 46.055c4.693 0 8.934 1.887 12.016 4.957 3.081 3.07 4.976 7.294 4.976 11.97S76.89 71.91 73.81 74.98c-3.082 3.041-7.323 4.957-12.016 4.957s-8.962-1.916-12.016-4.957c-3.081-3.07-5.004-7.323-5.004-11.998s1.923-8.9 5.004-11.97c3.054-3.07 7.323-4.957 12.016-4.957zm-20.3-13.153a9.735 9.735 0 016.956 2.9c1.78 1.775 2.883 4.226 2.883 6.93s-1.102 5.153-2.883 6.956a9.827 9.827 0 01-6.955 2.873 9.844 9.844 0 01-6.983-2.873c-1.782-1.803-2.884-4.253-2.884-6.957s1.102-5.154 2.884-6.928a9.752 9.752 0 016.983-2.901zm5.627 4.225a7.967 7.967 0 00-5.626-2.31 7.918 7.918 0 00-5.626 2.31c-1.442 1.436-2.347 3.408-2.347 5.604s.905 4.169 2.347 5.605a7.918 7.918 0 005.626 2.31 7.967 7.967 0 005.626-2.31c1.442-1.436 2.318-3.408 2.318-5.605s-.876-4.168-2.318-5.604zm14.956 26.362c-.085.056-.198.056-.283.056-.537 0-.961-.423-.961-.93V53.35c0-.535.424-.957.961-.957.509 0 .933.422.933.957v8.28h6.135c.51 0 .933.423.933.958a.94.94 0 01-.933.93h-6.587c-.057 0-.142 0-.198-.028zM72.48 52.364a15.119 15.119 0 00-10.687-4.422c-4.184 0-7.944 1.69-10.687 4.422-2.742 2.703-4.41 6.477-4.41 10.618a14.93 14.93 0 004.41 10.646 15.069 15.069 0 0010.687 4.422c4.156 0 7.945-1.69 10.687-4.422 2.714-2.732 4.41-6.478 4.41-10.646a14.98 14.98 0 00-4.41-10.618z" fill="#ea463c"/></svg>