<svg xmlns="http://www.w3.org/2000/svg" viewBox="0 0 90 90"><path d="M65.703 39.895C65.418 28.717 56.264 19.734 45 19.734s-20.418 8.983-20.703 20.161h1.939C26.52 29.8 34.819 21.673 45 21.673S63.45 29.8 63.736 39.895h1.967zm5.02 2.966a6.62 6.62 0 016.615 6.616 6.62 6.62 0 01-6.616 6.616 6.62 6.62 0 01-6.616-6.616 6.62 6.62 0 016.616-6.616zm0 15.171c4.733 0 8.555-3.85 8.583-8.555 0-4.734-3.85-8.583-8.584-8.583s-8.555 3.85-8.555 8.583c0 4.706 3.822 8.555 8.555 8.555zm-51.445-15.17a6.62 6.62 0 016.616 6.615c0 3.65-2.966 6.616-6.616 6.616s-6.616-2.966-6.616-6.616a6.62 6.62 0 016.616-6.616zm0 15.17c4.705 0 8.555-3.85 8.555-8.555 0-4.734-3.822-8.583-8.555-8.583s-8.584 3.85-8.584 8.583c0 4.706 3.85 8.555 8.584 8.555zm62.68-9.068A4.001 4.001 0 0085.438 45v-9.097a4.016 4.016 0 00-4.022-4.02h-6.273l-.114-.4c-.6-2.053-1.455-4.05-2.481-5.932l-.2-.37 4.477-4.45a4.017 4.017 0 001.17-2.822 3.967 3.967 0 00-1.17-2.823L70.38 8.64c-1.597-1.54-4.106-1.54-5.675-.029l-4.448 4.477-.371-.2a31.807 31.807 0 00-5.932-2.48l-.399-.114V4.02c0-2.223-1.795-4.02-3.992-4.02h-9.126c-2.196 0-3.992 1.797-3.992 4.02v6.275l-.4.114a31.807 31.807 0 00-5.93 2.48l-.372.2-4.448-4.448a4.09 4.09 0 00-5.675-.029l-6.445 6.474a4.017 4.017 0 00-1.17 2.823c0 1.055.428 2.081 1.17 2.823l4.449 4.449-.172.37a28.388 28.388 0 00-2.48 5.932l-.115.4H8.555c-2.196 0-3.992 1.796-3.992 4.02V45c0 2.025 1.511 3.707 3.45 3.964v-1.968C7.158 46.74 6.502 45.941 6.502 45v-9.097c0-1.14.941-2.082 2.053-2.082h7.785l.2-.713a28.48 28.48 0 013.165-7.557l.4-.656-5.533-5.532c-.399-.4-.627-.912-.627-1.454 0-.542.228-1.084.627-1.455l6.445-6.444a2.084 2.084 0 012.88 0l5.533 5.503.656-.37a28.329 28.329 0 017.557-3.166l.741-.2V4.022c0-1.14.913-2.053 2.053-2.053h9.126c1.112 0 2.053.912 2.053 2.053v7.785l.741.171a30.318 30.318 0 017.557 3.166l.656.399 5.533-5.532a2.084 2.084 0 012.88 0l6.445 6.444c.798.799.798 2.11 0 2.91l-5.504 5.531.37.656a27.572 27.572 0 013.166 7.557l.2.713h7.756c1.141 0 2.082.941 2.082 2.082V45c0 .941-.656 1.74-1.54 1.996v1.968zm-42.49 39.068V90h11.064v-1.968H39.468zM24.724 90v-1.968h-13.66V71.35H9.098v16.654l-.627-.143a7.132 7.132 0 01-1.768-.57c-2.88-1.34-4.734-4.22-4.734-7.386V73.83c0-3.679 1.825-7.13 4.876-9.24a11.204 11.204 0 016.274-1.91h12.148c.285 0 .542.028.827.028l.713.057-.257.685a13.02 13.02 0 00-.741 4.306v15.2c0 3.878 3.165 7.043 7.044 7.043h4.02V66.787h-1.967v21.245h-2.053c-2.823 0-5.105-2.281-5.105-5.076v-15.2c0-6.159 5.02-11.15 11.179-11.15h12.148c2.053 0 4.05.57 5.79 1.626.17.085.341.2.484.314a11.036 11.036 0 013.565 3.964 10.932 10.932 0 011.311 5.247v15.2a5.087 5.087 0 01-5.076 5.075h-2.081V66.787h-1.94V90h4.021c3.879 0 7.044-3.165 7.044-7.044v-15.2c0-1.454-.257-2.937-.77-4.305l-.228-.685.713-.057c.285 0 .542-.028.827-.028h12.148c2.224 0 4.42.656 6.274 1.939a11.16 11.16 0 014.876 9.21v6.075a8.08 8.08 0 01-4.762 7.386 7.318 7.318 0 01-1.74.57l-.655.143V71.35h-1.94v16.682h-13.66V90h14.63c1.454 0 2.88-.314 4.192-.941A10.06 10.06 0 0090 79.905V73.83c0-4.335-2.167-8.384-5.732-10.837a13.198 13.198 0 00-7.386-2.281H64.734c-.713 0-1.426.085-2.11.2l-.371.057-.171-.314a13.472 13.472 0 00-4.25-4.135 13.202 13.202 0 00-6.758-1.882H38.926c-4.449 0-8.612 2.253-11.008 6.017l-.17.314-.372-.057c-.684-.115-1.397-.2-2.11-.2H13.118c-2.624 0-5.19.798-7.386 2.281C2.167 65.447 0 69.496 0 73.831v6.074c0 3.935 2.31 7.5 5.875 9.154a9.808 9.808 0 004.22.941h14.63zM45 36.873a6.62 6.62 0 016.616 6.616A6.62 6.62 0 0145 50.105a6.62 6.62 0 01-6.616-6.616A6.62 6.62 0 0145 36.873zm0 15.17c4.734 0 8.555-3.85 8.555-8.554 0-4.734-3.821-8.584-8.555-8.584s-8.555 3.85-8.555 8.584A8.544 8.544 0 0045 52.044z" fill-rule="evenodd" clip-rule="evenodd" fill="#eb463d"/></svg>