<svg xmlns="http://www.w3.org/2000/svg" viewBox="0 0 95 77"><path d="M89.926 5.167H85.5V.96a.951.951 0 00-.958-.96h-8.457a.951.951 0 00-.959.96v4.207h-47.33V.96a.946.946 0 00-.931-.96H18.38a.97.97 0 00-.959.96v4.207h-3.72c-3.186 0-5.78 2.598-5.78 5.789v34.25c0 .508.423.932.959.932a.946.946 0 00.958-.932v-34.25A3.871 3.871 0 0113.7 7.087h76.226c1.748 0 3.157 1.44 3.157 3.191v46.533c0 1.723-1.41 3.163-3.157 3.163h-3.44v-5.789a.97.97 0 00-.958-.96h-15.11c-.507 0-.93.452-.93.96v5.789h-26.33L51.7 57.63a13.296 13.296 0 006.766-4.377l9.02-11.012c.113-.17.198-.339.226-.536l.79-10.504c.056-.847-.452-1.694-1.24-2.005l-.847-.367.79-.452c.31-.17.507-.48.507-.819a.97.97 0 00-.958-.96H60.58a.946.946 0 00-.93.96.94.94 0 00.93.932h6.174l-1.325.847a1.81 1.81 0 00-.367.283l-5.158 5.167c-.987.988-1.776 2.202-2.65 3.304a.977.977 0 00.14 1.355c.424.31 1.015.254 1.354-.141l1.917-2.429 4.792 4.8-8.485 10.363a11.244 11.244 0 01-5.75 3.756l-22.186 6.381c-1.156.367-.564 2.174.592 1.807l5.468-1.75v12.875H32.7a.945.945 0 100 1.892h8.57a.945.945 0 100-1.892h-4.257V61.894h52.913c2.79 0 5.074-2.287 5.074-5.083V10.25c0-2.796-2.283-5.083-5.074-5.083zM77.015 1.92h6.568v3.247h-6.568V1.92zm-57.677 0h6.569v3.247h-6.569V1.92zm47.275 28.857l-.649 8.697-4.03-4.01 4.679-4.687zm4.764 29.197v-4.829H84.57v4.829H71.377zM60.58 17.986h24.948a.946.946 0 100-1.891H60.58a.946.946 0 00-.93.96.94.94 0 00.93.931zM46.682 30.128c0 .536.423.96.959.96h7.64a.951.951 0 00.958-.96v-5.167a.951.951 0 00-.959-.96h-7.639a.951.951 0 00-.959.96v5.167zm1.917-4.207h5.751v3.247H48.6V25.92zm-.958-5.337h7.64a.951.951 0 00.958-.96v-5.167a.951.951 0 00-.959-.96h-7.639a.951.951 0 00-.959.96v5.167c0 .537.423.96.959.96zm.958-5.167h5.751v3.275H48.6v-3.275zM25.991 75.108H7.5v-7.934a31.82 31.82 0 013.213-13.949 7.325 7.325 0 016.54-4.094h23.68a20.6 20.6 0 0013.277-4.828.942.942 0 00.113-1.328.973.973 0 00-1.353-.113 18.73 18.73 0 01-12.037 4.377h-11.22l.733-.762c1.55-1.638 2.424-3.784 2.424-6.015v-5.59l.423-.029c3.383-.225 6.033-3.077 6.033-6.494 0-3.586-2.904-6.494-6.484-6.494-2.199-.057-4.313.452-5.863 2.117-.874.989-2.143 1.525-3.44 1.525h-3.861a5.418 5.418 0 00-5.413 5.422V41.45c0 1.1.254 2.174.93 3.077.282.396.649.735 1.072 1.017.535.367 1.155.395 1.663.932l.76.762h-1.098c-3.58-.056-6.992 1.892-8.598 5.14a34.071 34.071 0 00-3.411 14.795v7.934H.958a.945.945 0 100 1.892h25.033a.97.97 0 00.959-.96c0-.508-.451-.932-.959-.932zm-2.227-27.897a7.108 7.108 0 01-2.424-.593l-.818-.395.818-.424c.282-.17.592-.339.845-.565 1.1-.903 1.635-2.23 1.635-3.67v-6.72h7.133v5.618c0 3.728-3.045 6.777-6.766 6.777-.141 0-.282 0-.423-.028zm-7.583-5.76V30.919a3.48 3.48 0 013.496-3.502h3.862a6.61 6.61 0 004.848-2.146c1.184-1.299 2.791-1.58 4.454-1.496 2.537 0 4.595 2.061 4.595 4.574a4.6 4.6 0 01-4.595 4.603h-9.979c-.507 0-.958.423-.958.931v7.68c0 1.92-1.692 3.163-3.524 2.824-1.494-.282-2.199-1.496-2.199-2.936z" fill-rule="evenodd" clip-rule="evenodd" fill="#f03f2c"/></svg>