<svg xmlns="http://www.w3.org/2000/svg" viewBox="0 0 100 100"><path d="M18.28 45.757H0v15.006h18.28v-6.52h7.859v17.682H18.28v-6.55H0v15.007h18.28v-6.55h7.859v17.683H18.28v-6.52H0V100h18.28v-6.549h9.795V73.833H47.41v4.926h8.172v7.858H47.41V98.35h18.25v-4.9h14.436v4.898h18.252V86.617h-8.172V78.76h8.172V67H80.097v4.926H65.66V67h-8.172v-9.482l.512-.142a3.519 3.519 0 001.538-.826l5.58-5.58h25.086a7.134 7.134 0 007.118-6.379l2.62-23.548c.029-.285.057-.54.057-.797a7.182 7.182 0 00-7.175-7.176H56.89l.57-5.125c.028-.256.028-.512.028-.769 0-3.957-3.19-7.175-7.147-7.175H7.175A7.182 7.182 0 000 7.175c0 .257.028.513.057.77l2.62 23.576a7.134 7.134 0 007.118 6.378h16.344v14.407H18.28v-6.549zm-1.936 13.07H1.936V47.694h14.408v11.133zm0 19.618H1.936V67.312h14.408v11.133zm0 19.619H1.936V86.93h14.408v11.133zm57.489-70.957c0-3.075 2.505-5.552 5.58-5.552 3.076 0 5.581 2.477 5.581 5.552a5.59 5.59 0 01-5.58 5.58 5.59 5.59 0 01-5.581-5.58zm16.059 21.925H68.935v-3.93c0-5.78 4.698-10.478 10.478-10.478 5.78 0 10.479 4.698 10.479 10.479v3.929zm-25.598 0l-6.122 6.15c-.826.797-2.306.2-2.306-.968v-5.182h-3.588a5.238 5.238 0 01-5.21-4.641l-.713-6.492h1.367a7.178 7.178 0 007.119-6.378l1.822-16.515h36.162a5.225 5.225 0 015.239 5.239c0 .17 0 .37-.029.57l-2.62 23.576c-.199 1.651-1.138 3.103-2.59 3.929l-.997.57v-3.788c0-4.869-2.876-9.282-7.29-11.304l-.939-.427.769-.683c1.594-1.424 2.563-3.417 2.563-5.58 0-4.13-3.389-7.49-7.518-7.49-4.128 0-7.488 3.36-7.488 7.49 0 2.163.94 4.156 2.534 5.58l.769.683-.94.427c-4.413 2.022-7.29 6.435-7.29 11.304v3.93h-2.704zM40.86 35.962v5.183c0 1.139-1.48 1.765-2.306.968l-5.581-5.581v-4.499a12.41 12.41 0 00-7.261-11.304l-.94-.427.769-.684c1.595-1.423 2.534-3.416 2.534-5.58 0-4.13-3.36-7.489-7.488-7.489-4.158 0-7.518 3.36-7.518 7.489 0 2.164.94 4.157 2.563 5.58l.769.684-.94.427c-4.413 2.022-7.289 6.407-7.289 11.304v3.787l-.997-.57a5.133 5.133 0 01-2.59-3.957L1.964 7.745c-.029-.2-.029-.399-.029-.57a5.225 5.225 0 015.24-5.239h43.166a5.244 5.244 0 015.239 5.24c0 .17-.029.37-.057.569l-2.62 23.548a5.192 5.192 0 01-5.182 4.67H40.86zM15.006 14.038a5.59 5.59 0 015.58-5.581c3.076 0 5.553 2.505 5.553 5.58s-2.477 5.581-5.552 5.581a5.59 5.59 0 01-5.581-5.58zm16.059 21.924H10.108v-3.929c0-5.78 4.698-10.478 10.479-10.478s10.478 4.698 10.478 10.478v3.93zm32.688 60.479H49.317v-7.887h14.436v7.887zm32.688 0H82.005v-7.887H96.44v7.887zM82.005 68.935H96.44v7.887H82.005v-7.887zm-1.908 9.824h8.172v7.858h-8.172v4.898H65.66v-4.898h-8.172V78.76h8.172v-4.926h14.436v4.926zm-16.344-1.937H49.317v-7.887h14.436v7.887zM47.409 67v4.926H28.075V37.899h3.56l5.552 5.552a3.273 3.273 0 002.335.968 3.275 3.275 0 003.274-3.274v-3.246h1.623l.74 6.691a7.154 7.154 0 007.119 6.378h1.651v3.246c0 1.054.513 2.022 1.367 2.648l.285.2v9.937h-8.172zM6.549 52.306v1.937h5.182v-1.937H6.55zm0 19.619v1.908h5.182v-1.908H6.55zm0 19.59v1.936h5.182v-1.936H6.55zM35.962 6.549v1.908h15.006V6.549H35.962zm13.07 13.07v1.936h1.936v-1.937h-1.936zm-13.07 0v1.936H37.9v-1.937h-1.937zm6.52 0v1.936h1.937v-1.937h-1.936zm-6.52-6.55v1.937h15.006v-1.937H35.962z" fill-rule="evenodd" clip-rule="evenodd" fill="#919cb4"/></svg>