<svg xmlns="http://www.w3.org/2000/svg" viewBox="0 0 100 92"><path d="M49.673 0c1.877 0 3.584.876 4.836 2.26 1.195 1.384 1.935 3.249 1.935 5.31 0 2.063-.74 3.927-1.935 5.283-1.252 1.413-2.959 2.289-4.836 2.289-1.906 0-3.613-.876-4.865-2.289-1.195-1.356-1.935-3.22-1.935-5.282s.74-3.927 1.935-5.311C46.06.876 47.767 0 49.673 0zm17.525 87.799a.943.943 0 00-.2-1.328.914.914 0 00-.995-.085 38.64 38.64 0 01-11.266 3.362c-7.141.96-14.566-.085-21.337-3.334a.983.983 0 00-1.28.226.943.943 0 00.199 1.328.46.46 0 00.199.113v.028c7.112 3.419 14.964 4.549 22.475 3.532a39.924 39.924 0 0011.863-3.56c.114-.056.256-.17.342-.282zm-.029-69.889a.974.974 0 00-.967.96c0 .368.228.678.54.848h.029a37.836 37.836 0 019.502 6.865c5.093 5.056 8.734 11.582 10.213 18.87a.96.96 0 00.968.876c.54 0 .967-.424.967-.932 0-.085-.028-.17-.028-.255-1.565-7.684-5.406-14.576-10.783-19.915a39.392 39.392 0 00-9.986-7.204c-.028 0-.028-.028-.028 0-.114-.085-.256-.113-.427-.113zm-34.936 0c.54 0 .968.424.968.96 0 .368-.228.678-.541.848a36.84 36.84 0 00-9.502 6.865c-5.121 5.056-8.763 11.582-10.242 18.87-.028.509-.455.876-.967.876a.944.944 0 01-.939-.932c0-.085 0-.17.028-.255a39.05 39.05 0 0110.754-19.915c2.93-2.882 6.288-5.34 10.015-7.204 0 0 0-.028 0 0a.807.807 0 01.426-.113zm11.352 39.831a.944.944 0 01-.94-.932.95.95 0 01.94-.96h5.035v-4.972c0-.537.427-.96.967-.96a.95.95 0 01.94.96v4.972h5.035c.54 0 .967.423.967.96 0 .509-.427.932-.967.932h-5.036v5a.95.95 0 01-.939.961.956.956 0 01-.967-.96v-5h-5.035zm6.088-15.734c4.153 0 7.909 1.666 10.611 4.378 2.732 2.712 4.41 6.441 4.41 10.565s-1.678 7.854-4.41 10.566c-2.702 2.683-6.458 4.35-10.611 4.35s-7.938-1.667-10.64-4.35c-2.731-2.712-4.41-6.441-4.41-10.566s1.679-7.853 4.41-10.565c2.702-2.712 6.486-4.378 10.64-4.378zm9.274 5.706c-2.39-2.345-5.661-3.814-9.274-3.814-3.642 0-6.913 1.47-9.303 3.814-2.361 2.373-3.84 5.622-3.84 9.237 0 3.588 1.479 6.865 3.84 9.21 2.39 2.373 5.661 3.813 9.303 3.813 3.613 0 6.885-1.469 9.274-3.813a12.981 12.981 0 003.841-9.21c0-3.615-1.48-6.864-3.84-9.237zM20.313 66.386a11.337 11.337 0 016.23 3.926c1.537 1.921 2.475 4.35 2.475 6.978v2.147c0 .508-.426.932-.967.932H.967c-.54 0-.967-.424-.967-.932V77.29c0-2.627.91-5.057 2.447-6.978a11.444 11.444 0 016.315-3.955c.342-.056.655.029.882.255l4.865 4.83 4.865-4.83a.908.908 0 01.939-.226zm4.751 5.113a9.364 9.364 0 00-4.723-3.164l-5.149 5.113a.984.984 0 01-1.366 0l-5.149-5.113a9.364 9.364 0 00-4.723 3.164 9.156 9.156 0 00-2.048 5.79v1.187h25.206V77.29c0-2.204-.768-4.21-2.048-5.791zm-10.555-21.64c1.906 0 3.613.877 4.837 2.26 1.195 1.357 1.963 3.25 1.963 5.312 0 2.062-.768 3.926-1.963 5.282-1.224 1.413-2.93 2.26-4.837 2.26s-3.613-.847-4.836-2.26c-1.223-1.356-1.963-3.22-1.963-5.282s.74-3.955 1.963-5.311c1.223-1.384 2.93-2.26 4.836-2.26zm3.414 3.504c-.882-.989-2.077-1.61-3.414-1.61s-2.532.621-3.414 1.61c-.91 1.045-1.45 2.458-1.45 4.068 0 1.582.54 3.022 1.45 4.04.882.988 2.077 1.61 3.414 1.61s2.532-.622 3.414-1.61c.91-1.018 1.451-2.458 1.451-4.04 0-1.61-.54-3.023-1.45-4.068zm73.371 13.023a11.337 11.337 0 016.23 3.926c1.537 1.921 2.476 4.35 2.476 6.978v2.147c0 .508-.427.932-.967.932H71.949c-.54 0-.967-.424-.967-.932V77.29c0-2.627.91-5.057 2.446-6.978a11.444 11.444 0 016.316-3.955c.341-.056.654.029.882.255l4.865 4.83 4.865-4.83a.908.908 0 01.938-.226zm4.752 5.113a9.364 9.364 0 00-4.723-3.164l-5.15 5.113a.984.984 0 01-1.365 0l-5.15-5.113a9.364 9.364 0 00-4.722 3.164 9.156 9.156 0 00-2.048 5.79v1.187h25.206V77.29c0-2.204-.768-4.21-2.048-5.791zM85.49 49.859c1.906 0 3.613.877 4.836 2.26 1.195 1.357 1.963 3.25 1.963 5.312 0 2.062-.768 3.926-1.963 5.282-1.223 1.413-2.93 2.26-4.836 2.26s-3.613-.847-4.837-2.26c-1.223-1.356-1.963-3.22-1.963-5.282s.74-3.955 1.963-5.311c1.224-1.384 2.93-2.26 4.837-2.26zm3.414 3.504c-.882-.989-2.106-1.61-3.414-1.61-1.337 0-2.532.621-3.414 1.61-.91 1.045-1.48 2.458-1.48 4.068 0 1.582.57 3.022 1.48 4.04.882.988 2.077 1.61 3.414 1.61 1.308 0 2.532-.622 3.414-1.61.91-1.018 1.45-2.458 1.45-4.04 0-1.61-.54-3.023-1.45-4.068zM55.477 16.526a11.337 11.337 0 016.23 3.926 11.139 11.139 0 012.447 6.978v2.147a.95.95 0 01-.94.96H36.103a.95.95 0 01-.938-.96V27.43c0-2.627.91-5.057 2.446-6.978a11.444 11.444 0 016.316-3.954c.313-.057.654.028.882.254l4.865 4.83 4.836-4.83a.957.957 0 01.968-.226zm4.75 5.113a9.625 9.625 0 00-4.75-3.164l-5.15 5.113a.95.95 0 01-1.337 0l-5.15-5.113a9.422 9.422 0 00-4.722 3.164 9.215 9.215 0 00-2.048 5.791v1.186h25.178V27.43a9.36 9.36 0 00-2.02-5.791zM53.059 3.503c-.882-.989-2.076-1.61-3.385-1.61-1.337 0-2.532.621-3.414 1.61-.91 1.045-1.48 2.486-1.48 4.068s.57 3.022 1.48 4.04c.882 1.016 2.077 1.61 3.414 1.61 1.309 0 2.503-.594 3.385-1.61.91-1.018 1.48-2.458 1.48-4.04s-.57-3.023-1.48-4.068z" fill="#eb463d"/></svg>