<svg xmlns="http://www.w3.org/2000/svg" viewBox="0 0 90 90"><path d="M56.551 0c-3.554 0-6.478 2.837-6.478 6.348 0 3.512 2.924 6.349 6.478 6.349 3.583 0 6.478-2.837 6.478-6.349C63.029 2.838 60.134 0 56.55 0zm0 10.787c-2.494 0-4.529-1.995-4.529-4.439s2.035-4.438 4.529-4.438c2.494 0 4.529 1.994 4.529 4.438s-2.035 4.439-4.529 4.439zm17.828 42.078l1.261-1.46-9.716-8.062 9.086-5.562-1.032-1.63-9.602 5.9-4.386-3.652-1.461-21.882-1.95.14 1.348 20.028-12.24-10.14 6.823-10.59-1.634-1.011-6.707 10.337-9.602-7.978-1.261 1.461 9.83 8.146-9.257 14.354-11.838-4.213 2.78-16.124-1.92-.309-2.723 15.758-4.958-1.77-.688 1.77 5.331 1.91-3.239 18.736 1.92.338 3.182-18.4 11.064 3.961-10.405 16.152 1.634 1.011 10.663-16.488 17.197 6.151-23.99 14.775 1.031 1.602L54.2 50.59l4.759 1.685 1.146 17.585 1.95-.14-1.119-16.714 11.924 4.27.66-1.798-12.698-4.551-.287-4.242 3.669-2.275 10.175 8.455zm-20.408-4.41l-18.229-6.517 8.885-13.764L58.1 39.354l.401 6.32-4.529 2.781zm2.322.843l2.35-1.46.172 2.359-2.522-.9zm4.099-4.776l-.23-3.455 2.494 2.051-2.264 1.404zM49.385 79.775l.373-1.882-19.605-3.82-.373 1.882 19.605 3.82zM83.15 24.803c-3.554 0-6.478 2.866-6.478 6.349 0 3.51 2.924 6.348 6.478 6.348 3.582 0 6.477-2.837 6.477-6.348 0-3.483-2.895-6.349-6.477-6.349zm0 10.787c-2.494 0-4.529-1.994-4.529-4.438s2.035-4.439 4.529-4.439 4.528 1.995 4.528 4.439-2.035 4.438-4.528 4.438zm3.353 5.477l-1.92.197c.114 1.236.172 2.5.172 3.736 0 .983-.058 1.994-.115 2.978l1.95.14c.056-1.04.114-2.079.114-3.118 0-1.32-.058-2.612-.2-3.933zM66.611 9.747l-1.003 1.63a40.895 40.895 0 0111.982 11.15l1.634-1.067A42.52 42.52 0 0066.61 9.747zm-29.15-5.59l.345 1.882a40.315 40.315 0 016.65-.533c.573 0 1.146.028 1.72.028l.114-1.91c-.63 0-1.233-.028-1.835-.028-2.35 0-4.7.196-6.993.561zM15.192 15.14c-1.548 1.461-3.01 3.034-4.3 4.72l1.548 1.151a40.905 40.905 0 014.1-4.494l-1.35-1.377zM4.557 39.382l-1.92-.28A40.555 40.555 0 002.207 45c0 4.972.889 9.86 2.666 14.522l1.834-.674A38.77 38.77 0 014.157 45c0-1.882.142-3.764.4-5.618zM49.53 84.185a43.91 43.91 0 01-5.074.31c-5.904 0-11.608-1.208-16.94-3.652l-.83 1.741a42.875 42.875 0 0017.77 3.82c1.777 0 3.555-.112 5.332-.337l-.258-1.882zm28.519-17.387a39.546 39.546 0 01-6.85 7.753l1.26 1.432a41.776 41.776 0 007.224-8.118l-1.634-1.067zM6.478 23.006C2.895 23.006 0 25.87 0 29.354c0 3.511 2.895 6.348 6.478 6.348s6.477-2.837 6.477-6.348c0-3.483-2.894-6.348-6.477-6.348zm0 10.786c-2.494 0-4.529-1.994-4.529-4.438s2.035-4.438 4.529-4.438 4.528 1.994 4.528 4.438-2.035 4.438-4.528 4.438zM25.91.73c-4.557 0-8.312 3.652-8.312 8.146 0 4.495 3.755 8.146 8.312 8.146 4.586 0 8.312-3.651 8.312-8.146 0-4.494-3.726-8.146-8.312-8.146zm0 14.382c-3.497 0-6.363-2.809-6.363-6.236 0-3.455 2.866-6.236 6.363-6.236 3.525 0 6.363 2.781 6.363 6.236 0 3.427-2.838 6.236-6.363 6.236zM83.522 51.77c-3.583 0-6.477 2.865-6.477 6.348 0 3.511 2.894 6.348 6.477 6.348S90 61.63 90 58.118c0-3.483-2.895-6.348-6.478-6.348zm0 10.786c-2.493 0-4.528-1.994-4.528-4.438s2.035-4.438 4.528-4.438 4.529 1.994 4.529 4.438-2.035 4.438-4.529 4.438zM61.51 73.708c-4.586 0-8.313 3.652-8.313 8.146S56.924 90 61.51 90s8.312-3.652 8.312-8.146-3.726-8.146-8.312-8.146zm0 14.382c-3.497 0-6.364-2.81-6.364-6.236s2.867-6.236 6.364-6.236c3.496 0 6.363 2.809 6.363 6.236s-2.867 6.236-6.363 6.236zM14.188 60.758c-6.621 0-11.981 5.281-11.981 11.742 0 6.489 5.36 11.742 11.98 11.742 6.593 0 11.982-5.253 11.982-11.742 0-6.46-5.389-11.742-11.981-11.742zm0 21.573c-5.532 0-10.032-4.41-10.032-9.831 0-5.421 4.5-9.831 10.032-9.831S24.22 67.079 24.22 72.5c0 5.421-4.5 9.831-10.032 9.831z" fill-rule="evenodd" clip-rule="evenodd" fill="#ea463c"/></svg>