<svg xmlns="http://www.w3.org/2000/svg" viewBox="0 0 107 107"><path d="M101.76 35.034H80.094V26.17c0-2.888-2.35-5.24-5.24-5.24h-12.83c-.537 0-.962.426-.962.964s.425.963.963.963h12.83a3.318 3.318 0 013.313 3.313v64.914c0 1.813-1.5 3.314-3.313 3.314h-42.71a3.318 3.318 0 01-3.313-3.314V26.17a3.3 3.3 0 013.313-3.313h12.773c.539 0 .963-.425.963-.963s-.424-.963-.963-.963H32.145a5.246 5.246 0 00-5.24 5.24v8.864H5.24c-2.89 0-5.24 2.35-5.24 5.211v61.515c0 2.89 2.35 5.24 5.24 5.24h39.282c2.889 0 5.24-2.35 5.24-5.24v-5.437h7.476v5.437c0 2.89 2.351 5.24 5.24 5.24h39.282c2.89 0 5.24-2.35 5.24-5.24V40.245c0-2.86-2.35-5.21-5.24-5.21zM81.17 51.461c.312-.028.624-.028.935-.028 6.146 0 11.159 4.984 11.159 11.158 0 6.146-4.985 11.13-11.159 11.13-.311 0-.623 0-.935-.028l-1.076-.084V51.574l1.076-.113zm-56.275-.028c.311 0 .623 0 .935.028l1.076.113V73.61l-1.076.084c-.312.029-.624.029-.935.029-6.174 0-11.159-4.985-11.159-11.13a11.144 11.144 0 0111.159-11.16zm22.94 50.327a3.318 3.318 0 01-3.313 3.314H5.24a3.318 3.318 0 01-3.314-3.314V40.245c0-1.812 1.473-3.285 3.314-3.285h21.666v12.632l-1.246-.057c-.255-.028-.51-.028-.765-.028-7.222 0-13.085 5.862-13.085 13.084 0 7.194 5.863 13.057 13.085 13.057.255 0 .51 0 .765-.029l1.246-.056v8.581H12.49c-.538 0-.963.425-.963.963s.425.963.963.963h14.416v5.013c0 .595.113 1.19.311 1.756l.538 1.558H16.936c-.51 0-.934.425-.934.963s.425.963.934.963h30.9v5.437zm57.24 0c0 1.813-1.502 3.314-3.315 3.314H62.478a3.318 3.318 0 01-3.314-3.314v-5.437h30.871c.538 0 .963-.425.963-.963s-.425-.963-.963-.963H79.216l.567-1.558a5.334 5.334 0 00.311-1.756V86.07H94.51c.51 0 .963-.425.963-.963s-.453-.963-.963-.963H80.094v-8.581l1.246.056a6.9 6.9 0 00.765.029c7.222 0 13.085-5.863 13.085-13.057 0-7.222-5.863-13.084-13.085-13.084-.255 0-.51 0-.765.028l-1.246.057V36.96h21.666c1.813 0 3.314 1.473 3.314 3.285v61.515zM53.5 20.93a.989.989 0 00-.68.283c-.17.17-.283.425-.283.68s.113.51.283.68a.99.99 0 00.68.283c.255 0 .51-.114.68-.283.17-.17.283-.425.283-.68s-.113-.51-.283-.68-.425-.283-.68-.283zm14.274-7.477a.92.92 0 00.68-.283l3.682-3.682c.368-.397.368-.991 0-1.36a.926.926 0 00-1.36 0l-3.682 3.682a.926.926 0 000 1.36c.17.198.425.283.68.283zm-29.228-.283c.198.198.425.283.68.283s.51-.085.68-.283a.975.975 0 000-1.36l-3.682-3.682c-.397-.396-.992-.396-1.36 0-.396.369-.396.963 0 1.36l3.682 3.682zm14.926-4.957a.95.95 0 00.963-.934V.963A.955.955 0 0053.472 0a.955.955 0 00-.963.963v6.316c0 .51.425.934.963.934zM42.624 60.977c.029.057.085.085.142.113l.028.029.057.056c2.974 2.55 6.712 3.965 10.649 3.965s7.675-1.416 10.649-3.965l.057-.056.028-.029c.057-.028.113-.085.142-.113l.028-.028.057-.029c3.427-3.115 5.38-7.477 5.38-12.121 0-9.007-7.335-16.342-16.341-16.342s-16.342 7.335-16.342 16.342c0 4.644 1.954 9.006 5.381 12.121l.029.029.056.028zm2.153-1.87A9.556 9.556 0 0153.5 53.5a9.587 9.587 0 018.723 5.608l.425.878-.793.566c-2.464 1.728-5.353 2.662-8.355 2.662-3.002 0-5.92-.934-8.355-2.662l-.793-.566.425-.878zm4.871-11.413v-1.19c0-2.124 1.728-3.88 3.852-3.88 2.124 0 3.852 1.756 3.852 3.88v1.19c0 2.152-1.728 3.88-3.852 3.88-2.124 0-3.852-1.728-3.852-3.88zm-7.93 9.403a14.303 14.303 0 01-2.634-8.298c0-7.959 6.458-14.416 14.416-14.416s14.416 6.457 14.416 14.416a14.51 14.51 0 01-2.634 8.298l-1.048 1.473-.935-1.53c-1.104-1.812-2.747-3.285-4.673-4.248l-1.218-.623.793-1.133a5.604 5.604 0 001.077-3.342v-1.19c0-3.2-2.606-5.777-5.778-5.777a5.766 5.766 0 00-5.778 5.778v1.189c0 1.218.369 2.38 1.077 3.342l.793 1.133-1.247.623a11.845 11.845 0 00-4.673 4.248l-.906 1.53-1.048-1.473zm2.889 26.736c0 .51.425.963.963.963h15.86a.973.973 0 00.963-.963.955.955 0 00-.963-.963H45.57a.955.955 0 00-.963.963zM66.84 73.58a.955.955 0 00-.963-.963H41.123a.955.955 0 00-.963.963c0 .51.425.963.963.963h24.754a.973.973 0 00.963-.963z" fill-rule="evenodd" clip-rule="evenodd" fill="#ea463c"/></svg>