<svg xmlns="http://www.w3.org/2000/svg" viewBox="0 0 96 96"><path d="M88.547 55.449a.944.944 0 00-.929.957v10.138h-2.76a.944.944 0 00-.956.93.95.95 0 00.957.957h3.688a.95.95 0 00.957-.958V56.406a.95.95 0 00-.957-.957zM61.66 82.567v.507c0 .507.423.93.93.93a.944.944 0 00.957-.93V69.106a2.301 2.301 0 012.308-2.309h9.714a2.32 2.32 0 012.308 2.31v22.697a2.32 2.32 0 01-2.308 2.31h-9.714a2.301 2.301 0 01-2.308-2.31v-1.605a.95.95 0 00-.958-.958.944.944 0 00-.929.958v1.605A4.17 4.17 0 0065.854 96h9.714a4.188 4.188 0 004.195-4.196V69.106a4.193 4.193 0 00-2.788-3.942l-.45-.169V56.35l.507-.113a25.273 25.273 0 0015.457-11.63c3.407-5.801 4.392-12.645 2.703-19.15C92.32 14.277 82.24 6.505 70.697 6.505c-5.518 0-10.924 1.802-15.316 5.182-.395.31-.479.929-.17 1.323a.944.944 0 001.324.197 23.194 23.194 0 0114.162-4.815c12.923 0 23.397 10.448 23.425 23.373 0 12.898-10.446 23.402-23.369 23.402a23.394 23.394 0 01-14.837-5.294l-.592-.479 3.407-3.154.45.366c6.448 5.04 15.43 5.294 22.187.648a.947.947 0 00.253-1.324.943.943 0 00-1.295-.253s-.028 0-.056.028c-5.885 4.055-13.712 3.97-19.484-.254l-.647-.506 4.448-4.112h12.614a.938.938 0 00.929-.93V33.4c0-1.634-.93-3.098-2.393-3.774l-.732-.338.45-.676c1.858-2.619 1.239-6.251-1.408-8.082-2.618-1.858-6.25-1.239-8.08 1.38-1.436 2.028-1.436 4.703 0 6.702l.45.676-.732.338a4.159 4.159 0 00-2.421 3.774v6.082l-4.533 4.196-.479-.507c-6.278-6.87-5.8-17.572 1.07-23.852S76.891 13.49 83.17 20.36c5.293 5.801 5.884 14.56 1.464 21.008a.913.913 0 00.225 1.296c.45.31 1.042.197 1.323-.226 5.913-8.56 3.773-20.275-4.758-26.19-8.56-5.885-20.272-3.745-26.184 4.788-4.955 7.21-4.28 16.981 1.633 23.43l.45.507-3.35 3.097-.479-.506c-7.686-8.308-8.25-20.98-1.38-29.964.339-.394.254-1.013-.168-1.323a.944.944 0 00-1.324.197c-7.46 9.687-6.813 23.402 1.493 32.385l.45.507-9.798 9.04H7.433a.944.944 0 00-.93.957c0 .535.423.957.93.957h35.7c.226 0 .45-.112.648-.253l10.164-9.406.45.394a25.348 25.348 0 009.995 5.182l.507.113v8.645l-.45.169a4.193 4.193 0 00-2.788 3.942v13.461zM30.858 19.6a.95.95 0 01-.958-.958c0-.506.423-.929.958-.929h9.066c.506 0 .957.423.957.93 0 .534-.45.957-.957.957h-9.066zm9.037 4.73H23.65a.944.944 0 00-.929.958c0 .535.422.958.93.958h16.244c.507 0 .93-.423.93-.958a.944.944 0 00-.93-.957zm0 29.485c.507 0 .93-.422.93-.93v-8.138a.937.937 0 00-.93-.929h-6.503c-.507 0-.958.423-.958.93v8.138c0 .507.45.93.958.93a.944.944 0 00.957-.93v-7.181h4.59v7.18c0 .508.422.93.956.93zM20.412 35.708a.937.937 0 00-.929.93v16.248c0 .507.422.93.93.93h6.503c.507 0 .93-.423.93-.93V36.637a.937.937 0 00-.93-.93h-6.504zm5.547 16.22h-4.59V37.595h4.59v14.333zM7.433 42.185a.944.944 0 00-.93.957v9.744c0 .507.423.93.93.93h6.504a.938.938 0 00.929-.93v-9.744a.944.944 0 00-.93-.957H7.434zm5.546 9.743H8.39v-7.856h4.59v7.856zm63.264-12.982H65.18V33.4c0-1.268 1.013-2.31 2.28-2.31h6.504c1.267 0 2.28 1.042 2.28 2.31v5.547zm-5.546-17.572c2.168 0 3.942 1.746 3.942 3.914s-1.774 3.915-3.942 3.915-3.914-1.746-3.914-3.915 1.746-3.914 3.914-3.914zm0 35.68c1.07 0 2.112-.057 3.153-.197l.789-.113v8.167h-7.856v-8.167l.76.113a23.85 23.85 0 003.154.197zm-14.134 9.49H1.886V18.136h15.288a.988.988 0 00.958-.958V1.887h69.486v5.266c0 .535.422.957.93.957a.95.95 0 00.956-.957V.957A.95.95 0 0088.547 0H17.174a.983.983 0 00-.675.282L.282 16.502a.983.983 0 00-.282.676v50.295a.95.95 0 00.957.958h55.606c.507 0 .93-.423.93-.958a.937.937 0 00-.93-.93zM3.238 16.22l12.98-12.983V16.22H3.237z" fill-rule="evenodd" clip-rule="evenodd" fill="#f03f2c"/></svg>