<svg xmlns="http://www.w3.org/2000/svg" viewBox="0 0 96 80"><path d="M76.641 1.313a8.774 8.774 0 016.327 2.709c1.61 1.648 2.598 3.938 2.598 6.48 0 6.815-2.231 11.255-5.112 13.238-1.186.81-2.485 1.23-3.813 1.23-1.299 0-2.598-.42-3.812-1.23-2.853-1.983-5.112-6.423-5.112-13.238 0-2.542.989-4.832 2.598-6.48l.057-.056c1.638-1.648 3.84-2.653 6.27-2.653zM10.556 65.356l-4.83-4.19c-.423-.362-.593-.977-.423-1.508.17-.53.678-.921 1.243-.977l6.382-.559 2.514-5.865c.226-.503.762-.838 1.327-.838s1.101.335 1.3.838l2.54 5.865 6.384.559a1.5 1.5 0 011.242.977c.17.531 0 1.146-.423 1.509l-4.83 4.19 1.412 6.2c.142.558-.084 1.117-.536 1.452a1.477 1.477 0 01-1.582.084l-5.507-3.268-5.507 3.268c-.226.111-.48.195-.734.195-.311 0-.593-.112-.848-.28a1.379 1.379 0 01-.536-1.451l1.412-6.2zM22.36 70.97l-1.271-5.446a1.442 1.442 0 01.452-1.397l4.264-3.687-5.62-.502A1.436 1.436 0 0119 59.072l-2.231-5.14-2.231 5.14c-.198.475-.65.81-1.186.866l-5.62.502 4.236 3.687c.395.363.593.866.452 1.397l-1.243 5.446 4.858-2.849c.226-.14.48-.223.734-.223s.508.084.734.223l4.858 2.849zm50.666-5.614l-4.83-4.19c-.452-.362-.593-.977-.423-1.508.169-.53.65-.921 1.214-.977l6.41-.559 2.514-5.865a1.438 1.438 0 011.328-.838c.565 0 1.073.335 1.299.838l2.513 5.865 6.411.559a1.427 1.427 0 011.215.977 1.38 1.38 0 01-.396 1.509l-4.857 4.19 1.44 6.2c.113.558-.085 1.117-.565 1.452a1.427 1.427 0 01-1.553.084l-5.507-3.268-5.536 3.268a1.504 1.504 0 01-.734.195c-.282 0-.593-.112-.819-.28-.48-.334-.678-.893-.565-1.451l1.44-6.2zm11.776 5.614l-1.242-5.446a1.442 1.442 0 01.452-1.397l4.264-3.687-5.648-.502a1.518 1.518 0 01-1.186-.866l-2.203-5.14-2.231 5.14c-.226.475-.678.81-1.187.866l-5.648.502 4.265 3.687c.395.363.564.866.451 1.397l-1.242 5.446 4.857-2.849a1.269 1.269 0 011.44 0l4.858 2.849zM39.56 79.991c-.339 0-.678-.083-.96-.307a1.596 1.596 0 01-.621-1.648l1.976-8.574-6.693-5.782a1.6 1.6 0 01-.452-1.703 1.574 1.574 0 011.384-1.09l8.812-.81 3.502-8.071c.254-.587.847-.95 1.496-.95.65 0 1.243.363 1.497.95l3.474 8.071 8.811.81c.65.056 1.215.475 1.412 1.09.198.614 0 1.284-.48 1.703l-6.665 5.782 1.977 8.574a1.564 1.564 0 01-.65 1.648c-.508.391-1.214.42-1.779.084l-7.597-4.497-7.625 4.497a1.452 1.452 0 01-.819.223zm8.444-6.647c.283 0 .565.084.82.224l7.173 4.245-1.836-8.072a1.56 1.56 0 01.508-1.564l6.298-5.474-8.331-.754c-.593-.056-1.13-.42-1.356-.95l-3.276-7.625L44.7 61c-.226.53-.734.894-1.327.95l-8.332.754 6.298 5.474c.424.363.622.978.509 1.564l-1.864 8.072 7.173-4.245c.254-.14.565-.224.847-.224zm-5.055-13.1zm10.082 0zM24.874 51.42a.947.947 0 01-1.073.782c-.536-.084-.875-.559-.79-1.061l.423-2.905c.847-5.502 1.214-8.044 2.88-9.72 1.413-1.452 3.56-2.01 7.541-3.044 1.638-.419 3.615-.922 6.044-1.62a.936.936 0 01.96.251l7.202 7.681 6.947-7.457a.896.896 0 01.96-.251 151.13 151.13 0 006.411 1.62c3.757.921 5.733 1.396 7.117 2.765 1.525 1.508 1.92 3.826 2.796 8.77.226 1.228.452 2.625.706 3.882a.935.935 0 01-.762 1.09.916.916 0 01-1.102-.755c-.31-1.62-.508-2.849-.706-3.91-.79-4.525-1.186-6.675-2.287-7.765-.989-.977-2.796-1.424-6.213-2.262-1.61-.391-3.587-.838-5.931-1.48l-7.23 7.764-.057.056c-.367.363-.96.335-1.327-.056l-7.512-7.988c-2.147.615-3.982 1.09-5.536 1.48-3.643.95-5.591 1.453-6.665 2.514-1.214 1.257-1.581 3.603-2.344 8.686a138.2 138.2 0 00-.452 2.933zM48.004 0c3.135 0 5.988 1.34 8.05 3.463a11.85 11.85 0 013.332 8.268c0 8.825-2.88 14.551-6.58 17.065-1.497 1.061-3.164 1.564-4.802 1.564-1.666 0-3.304-.503-4.829-1.564-3.671-2.514-6.552-8.24-6.552-17.065a11.85 11.85 0 013.332-8.268C42.017 1.341 44.87 0 48.005 0zm6.694 4.748c-1.723-1.76-4.095-2.877-6.694-2.877-2.598 0-4.97 1.118-6.693 2.877a10.07 10.07 0 00-2.796 6.983c0 8.155 2.514 13.322 5.761 15.529 1.187.81 2.457 1.229 3.728 1.229 1.271 0 2.542-.42 3.728-1.23 3.22-2.206 5.762-7.373 5.762-15.528a10.07 10.07 0 00-2.796-6.983zM35.55 30.444c.508.14.79.67.621 1.173-.17.502-.706.754-1.214.586l-9.32-3.044-5.648 6.005c-.368.39-.96.39-1.356.056l-.056-.056-5.423-5.865c-1.723.474-3.191.837-4.406 1.117-2.57.642-3.925.95-4.66 1.676-.79.782-1.073 2.401-1.666 5.837-.141.782-.31 1.676-.536 2.988a.972.972 0 01-1.102.755c-.536-.112-.875-.587-.762-1.09.17-.95.367-2.01.536-2.988.65-3.799.989-5.614 2.203-6.815 1.073-1.09 2.627-1.453 5.536-2.179 1.299-.307 2.88-.67 4.885-1.229a.896.896 0 01.96.252l5.14 5.53 5.338-5.67a.922.922 0 011.017-.28l9.913 3.24zM19.339 3.184c-1.92 0-3.671.81-4.942 2.123-1.271 1.34-2.09 3.156-2.09 5.195 0 6.144 1.892 10.027 4.32 11.702.876.587 1.808.866 2.712.866.932 0 1.864-.28 2.74-.866 2.4-1.675 4.292-5.558 4.292-11.702 0-2.04-.79-3.855-2.061-5.195l-.057-.056a6.863 6.863 0 00-4.914-2.067zm-6.298.838c1.61-1.676 3.841-2.71 6.298-2.71a8.755 8.755 0 016.27 2.654l.056.056c1.61 1.648 2.598 3.938 2.598 6.48 0 6.815-2.23 11.255-5.111 13.238-1.186.81-2.486 1.23-3.813 1.23-1.3 0-2.598-.42-3.784-1.23-2.881-1.983-5.14-6.423-5.14-13.238a9.355 9.355 0 012.598-6.48h.028zm47.983 28.181c-.509.168-1.045-.084-1.186-.586-.17-.503.084-1.034.593-1.173l9.913-3.24c.395-.14.79 0 1.044.28l5.31 5.669 5.14-5.53a.942.942 0 01.988-.252c2.006.559 3.587.922 4.858 1.23 2.937.725 4.462 1.089 5.564 2.178 1.214 1.2 1.525 3.016 2.202 6.815.17.977.368 2.039.537 2.988.085.503-.254.978-.762 1.09-.509.083-1.017-.252-1.102-.755-.254-1.312-.395-2.206-.537-2.988-.62-3.436-.903-5.055-1.694-5.837-.706-.727-2.062-1.034-4.632-1.676-1.214-.28-2.683-.643-4.405-1.117l-5.451 5.865-.057.056c-.367.335-.988.335-1.327-.056l-5.648-6.005-9.348 3.044zM81.612 5.307a6.932 6.932 0 00-4.97-2.123 6.914 6.914 0 00-4.915 2.067l-.028.056a7.402 7.402 0 00-2.09 5.195c0 6.144 1.892 10.027 4.321 11.702.848.587 1.78.866 2.711.866s1.864-.28 2.74-.866c2.4-1.675 4.293-5.558 4.293-11.702a7.5 7.5 0 00-2.062-5.195z" fill="#eb463d"/></svg>