<svg xmlns="http://www.w3.org/2000/svg" viewBox="0 0 88 88"><path d="M88 0H0v76.522h6.217l.085.365C8.13 83.414 14.095 88 20.902 88c2.645 0 5.234-.675 7.54-1.997L44 77.113l15.586 8.89C61.864 87.325 64.48 88 67.097 88a15.16 15.16 0 0014.601-11.113l.113-.365H88V0zM64.453 23.463c1.716 0 3.291.703 4.417 1.829l.056.056a6.241 6.241 0 011.772 4.36c0 1.491-.534 2.87-1.435 3.967a6.351 6.351 0 011.998 1.773 6.524 6.524 0 011.294 3.91v6.19a.949.949 0 01-.957.956H57.307a.943.943 0 01-.928-.957v-6.189a6.52 6.52 0 011.294-3.91 6.573 6.573 0 011.969-1.773 6.37 6.37 0 01-1.407-3.967c0-1.716.704-3.291 1.829-4.416a6.188 6.188 0 014.389-1.83zm3.263 11.534v.029h-.028l-.028.028h-.028l-.028.028h-.029v.028h-.056v.028a6.209 6.209 0 01-2.476.76h-.056l-.028.028h-1.013l-.028-.028h-.141a6.553 6.553 0 01-2.11-.62l-.028-.027h-.028l-.084-.057h-.028l-.028-.028h-.029l-.028-.028-.028-.028h-.028l-.028-.028h-.028v-.028h-.056l-.029-.028-.028-.029a4.595 4.595 0 00-1.997 1.576c-.591.76-.929 1.744-.929 2.785v5.26H70.67v-5.26c0-1.04-.366-2.026-.928-2.785a4.675 4.675 0 00-2.026-1.576zm-5.88-1.828c.028.028.057.028.085.056.084.056.197.14.31.197v.028l.14.056h.028v.029h.028l.028.028h.028l.029.028h.028l.028.028h.028l.028.028h.056c.394.197.816.31 1.266.366h.141l.028.028h.703l.029-.028h.112c.45-.056.9-.169 1.294-.366h.056v-.028h.057v-.028h.056v-.028h.056v-.028h.028l.029-.029h.028c.056-.028.112-.084.168-.112h.029c.084-.056.168-.14.28-.197v-.028c.17-.113.339-.253.48-.394a4.34 4.34 0 001.265-3.067c0-1.181-.45-2.25-1.21-3.038l-.056-.028a4.291 4.291 0 00-3.066-1.266 4.34 4.34 0 00-3.067 1.266 4.291 4.291 0 00-1.266 3.066 4.34 4.34 0 001.266 3.067c.14.14.31.281.45.394zm-37.895-9.706c1.716 0 3.292.703 4.417 1.829l.028.056a6.241 6.241 0 011.773 4.36 6.37 6.37 0 01-1.407 3.967 6.57 6.57 0 011.97 1.773c.815 1.097 1.321 2.447 1.321 3.91v6.19a.949.949 0 01-.956.956H16.795a.949.949 0 01-.956-.957v-6.189c0-1.463.506-2.813 1.322-3.91a6.573 6.573 0 011.97-1.773 6.37 6.37 0 01-1.407-3.967c0-1.716.675-3.291 1.8-4.416a6.254 6.254 0 014.417-1.83zm3.264 11.534l-.029.029-.028.028h-.028l-.028.028h-.028v.028h-.056l-.028.028a5.946 5.946 0 01-2.448.76h-.056l-.028.028h-1.013l-.028-.028h-.141a6.553 6.553 0 01-2.11-.62l-.028-.027H21.1l-.085-.057h-.028l-.028-.028h-.028l-.028-.028-.028-.028h-.057v-.028h-.028l-.028-.028h-.028l-.028-.028-.028-.029a4.844 4.844 0 00-2.026 1.576 4.71 4.71 0 00-.9 2.785v5.26H30.13v-5.26c0-1.04-.337-2.026-.9-2.785a4.844 4.844 0 00-2.025-1.576zm-5.88-1.828c.028.028.056.028.084.056.085.056.197.14.31.197v.028l.14.056.028.029h.029v.028h.056v.028h.056v.028h.056v.028h.057c.422.197.844.31 1.294.366h.14v.028h.732v-.028h.141c.45-.056.872-.169 1.294-.366h.028l.028-.028h.028l.028-.028h.028l.028-.028h.029l.028-.028h.028l.028-.029h.028c.056-.028.113-.084.169-.112.112-.056.197-.14.281-.197l.028-.028a3.21 3.21 0 00.479-.394 4.34 4.34 0 001.266-3.067c0-1.181-.45-2.25-1.21-3.038l-.056-.028c-.788-.788-1.857-1.266-3.067-1.266s-2.279.478-3.066 1.266a4.291 4.291 0 00-1.266 3.066 4.34 4.34 0 001.266 3.067c.14.14.281.281.45.394zM86.087 1.913v9.565H1.913V1.913h84.174zm-5.74 70.923c0 7.315-5.935 13.251-13.25 13.251-2.307 0-4.557-.59-6.555-1.744l-14.6-8.328 3.853-2.222 12.632 7.23a9.425 9.425 0 0014.095-8.187v-.281c0-5.176-4.22-9.425-9.425-9.425a9.43 9.43 0 00-4.67 1.238L27.486 84.343a13.17 13.17 0 01-6.583 1.744c-7.315 0-13.25-5.936-13.25-13.25v-.282c0-7.286 5.935-13.25 13.25-13.25 2.307 0 4.585.618 6.583 1.744l14.601 8.355-3.854 2.194-12.66-7.23a9.352 9.352 0 00-4.67-1.238c-5.205 0-9.425 4.249-9.425 9.425v.281a9.425 9.425 0 009.425 9.425 9.352 9.352 0 004.67-1.238l34.97-19.974a13.36 13.36 0 016.554-1.745c7.315 0 13.279 5.936 13.25 13.251v.281zm-28.639-.14l11.676-6.668a7.483 7.483 0 013.713-.985c4.136 0 7.512 3.376 7.512 7.512v.281a7.51 7.51 0 01-11.225 6.527l-11.676-6.667zm-15.416 0l-11.647 6.667a7.667 7.667 0 01-3.742.985c-4.136 0-7.512-3.376-7.512-7.512v-.281c0-4.136 3.376-7.512 7.512-7.512a7.67 7.67 0 013.742.985l11.647 6.668zm45.913 1.406c.028-.422.056-.844.056-1.266v-.281c0-8.356-6.808-15.164-15.164-15.164-2.616 0-5.233.704-7.511 1.998L44 68.307l-15.558-8.918c-2.306-1.294-4.895-1.998-7.54-1.998-8.355 0-15.163 6.808-15.163 15.164v.281c0 .422.028.844.056 1.266l.057.507H1.913V13.39h84.174v61.22h-3.939l.057-.507zM5.739 5.74v1.913h1.913V5.74H5.74zm5.74 0v1.913h1.912V5.74h-1.913zm5.738 0v1.913h1.913V5.74h-1.913zM5.74 53.565h36.348V17.217H5.739v36.348zM7.652 19.13h32.522v32.522H7.652V19.13zm38.261 34.435h36.348V17.217H45.913v36.348zm1.913-34.435h32.522v32.522H47.826V19.13z" fill-rule="evenodd" clip-rule="evenodd" fill="#f03f2c"/></svg>